<?xml version="1.0" encoding="UTF-8" standalone="no"?>
<!-- Created with Inkscape (http://www.inkscape.org/) -->

<svg
   xmlns:dc="http://purl.org/dc/elements/1.1/"
   xmlns:cc="http://creativecommons.org/ns#"
   xmlns:rdf="http://www.w3.org/1999/02/22-rdf-syntax-ns#"
   xmlns:svg="http://www.w3.org/2000/svg"
   xmlns="http://www.w3.org/2000/svg"
   version="1.1"
   width="100%"
   height="100%"
   viewBox="0 0 767.25868 397.34362"
   id="svg3441"
   style="fill:none;stroke:none">
  <metadata
     id="metadata3536">
    <rdf:RDF>
      <cc:Work
         rdf:about="">
        <dc:format>image/svg+xml</dc:format>
        <dc:type
           rdf:resource="http://purl.org/dc/dcmitype/StillImage" />
        <dc:title></dc:title>
      </cc:Work>
    </rdf:RDF>
  </metadata>
  <defs
     id="defs3534" />
  <clipPath
     id="p.0">
    <path
       d="m 0,0 1152,0 0,864 L 0,864 0,0 z"
       id="path3444" />
  </clipPath>
  <g
     transform="translate(-14,-466.65637)"
     clip-path="url(#p.0)"
     id="g3446">
    <path
       d="M 14,480 781.25869,466.65637 759.01931,882.53282 14,1344 z"
       id="path3448"
       style="fill:#000000;fill-opacity:0;fill-rule:nonzero" />
    <path
       d="m 159.16798,490.02625 c 12.51443,36.04199 6.17366,171.70035 75.08661,216.25197 68.91295,44.55162 281.99255,42.54811 338.3911,51.05775"
       id="path3450"
       style="fill:#000000;fill-opacity:0;fill-rule:nonzero" />
    <path
       d="m 159.16798,490.02625 c 12.51443,36.04199 6.17366,171.70035 75.08661,216.25197 68.91295,44.55162 281.99255,42.54811 338.3911,51.05775"
       id="path3452"
       style="stroke:#000000;stroke-width:1;stroke-linecap:butt;stroke-linejoin:round" />
    <path
       d="m 236.25722,707.27821 -140.15747,0"
       id="path3454"
       style="fill:#000000;fill-opacity:0;fill-rule:nonzero" />
    <path
       d="m 236.25722,707.27821 -140.15747,0"
       id="path3456"
       style="stroke:#000000;stroke-width:1;stroke-linecap:butt;stroke-linejoin:round;stroke-dasharray:1, 3" />
    <path
       d="m 236.25722,707.27821 0,100.12599"
       id="path3458"
       style="fill:#000000;fill-opacity:0;fill-rule:nonzero" />
    <path
       d="m 236.25722,707.27821 0,100.12599"
       id="path3460"
       style="stroke:#000000;stroke-width:1;stroke-linecap:butt;stroke-linejoin:round;stroke-dasharray:1, 3" />
    <path
       d="m 16.020997,480 95.118113,0 0,35.05512 -95.118113,0 z"
       id="path3462"
       style="fill:#000000;fill-opacity:0;fill-rule:nonzero" />
    <path
       d="m 26.583497,506.92 0,-13.59375 9.171876,0 0,1.59375 -7.375001,0 0,4.21875 6.375001,0 0,1.60937 -6.375001,0 0,6.17188 z m 11.099107,-11.6875 0,-1.90625 1.671875,0 0,1.90625 z m 0,11.6875 0,-9.85938 1.671875,0 0,9.85938 z m 4.129196,0 0,-9.85938 1.5,0 0,1.40625 c 0.729167,-1.08333 1.776041,-1.625 3.140623,-1.625 0.59375,0 1.140625,0.10938 1.640625,0.32813 0.5,0.20833 0.869792,0.48958 1.109375,0.84375 0.25,0.34375 0.427083,0.75 0.53125,1.21875 0.0625,0.3125 0.09375,0.85417 0.09375,1.625 l 0,6.0625 -1.671875,0 0,-6 c 0,-0.67708 -0.06771,-1.18229 -0.203125,-1.51563 -0.125,-0.34375 -0.354167,-0.61458 -0.6875,-0.8125 -0.333333,-0.19791 -0.723958,-0.29687 -1.171875,-0.29687 -0.708332,0 -1.322915,0.22396 -1.843748,0.67187 -0.510417,0.44792 -0.765625,1.3073 -0.765625,2.57813 l 0,5.375 z m 16.813215,-1.21875 c -0.625,0.53125 -1.223958,0.90625 -1.796875,1.125 -0.572917,0.20833 -1.1875,0.3125 -1.84375,0.3125 -1.072917,0 -1.901042,-0.26042 -2.484375,-0.78125 -0.583333,-0.53125 -0.875,-1.20833 -0.875,-2.03125 0,-0.48958 0.109375,-0.93229 0.328125,-1.32813 0.21875,-0.39583 0.505208,-0.71354 0.859375,-0.95312 0.354167,-0.23958 0.755208,-0.42188 1.203125,-0.54688 0.333333,-0.0937 0.828125,-0.17708 1.484375,-0.25 1.354167,-0.16666 2.348958,-0.35937 2.984375,-0.57812 l 0,-0.4375 c 0,-0.67708 -0.15625,-1.15625 -0.46875,-1.4375 -0.427083,-0.375 -1.0625,-0.5625 -1.90625,-0.5625 -0.78125,0 -1.359375,0.13542 -1.734375,0.40625 -0.375,0.27083 -0.651042,0.76042 -0.828125,1.46875 l -1.640625,-0.23438 c 0.15625,-0.69791 0.401042,-1.26041 0.734375,-1.6875 0.34375,-0.42708 0.833333,-0.7552 1.46875,-0.98437 0.645833,-0.23958 1.395833,-0.35938 2.25,-0.35938 0.84375,0 1.526042,0.099 2.046875,0.29688 0.520833,0.19792 0.90625,0.44792 1.15625,0.75 0.25,0.30208 0.421875,0.68229 0.515625,1.14062 0.0625,0.28125 0.09375,0.79167 0.09375,1.53125 l 0,2.23438 c 0,1.55208 0.03125,2.53646 0.09375,2.95312 0.07292,0.40625 0.21875,0.79688 0.4375,1.17188 l -1.75,0 c -0.177083,-0.34375 -0.286458,-0.75 -0.328125,-1.21875 z M 58.48439,501.9825 c -0.604167,0.23958 -1.515625,0.44792 -2.734375,0.625 -0.6875,0.0937 -1.171875,0.20312 -1.453125,0.32812 -0.28125,0.125 -0.5,0.3073 -0.65625,0.54688 -0.15625,0.23958 -0.234375,0.50521 -0.234375,0.79687 0,0.44792 0.166667,0.82292 0.5,1.125 0.34375,0.29167 0.838542,0.4375 1.484375,0.4375 0.645833,0 1.21875,-0.14062 1.71875,-0.42187 0.5,-0.29167 0.869792,-0.67708 1.109375,-1.15625 0.177083,-0.38542 0.265625,-0.94271 0.265625,-1.67188 z m 4.078842,4.9375 0,-9.85938 1.5,0 0,1.40625 c 0.729167,-1.08333 1.776042,-1.625 3.140625,-1.625 0.59375,0 1.140625,0.10938 1.640625,0.32813 0.5,0.20833 0.869792,0.48958 1.109375,0.84375 0.25,0.34375 0.427083,0.75 0.53125,1.21875 0.0625,0.3125 0.09375,0.85417 0.09375,1.625 l 0,6.0625 -1.671875,0 0,-6 c 0,-0.67708 -0.06771,-1.18229 -0.203125,-1.51563 -0.125,-0.34375 -0.354167,-0.61458 -0.6875,-0.8125 -0.333333,-0.19791 -0.723958,-0.29687 -1.171875,-0.29687 -0.708333,0 -1.322917,0.22396 -1.84375,0.67187 -0.510417,0.44792 -0.765625,1.3073 -0.765625,2.57813 l 0,5.375 z m 16.813217,-3.60938 1.640625,0.21875 c -0.177083,1.125 -0.635417,2.01042 -1.375,2.65625 -0.739583,0.63542 -1.651042,0.95313 -2.734375,0.95313 -1.34375,0 -2.427083,-0.4375 -3.25,-1.3125 -0.8125,-0.88542 -1.21875,-2.15104 -1.21875,-3.79688 0,-1.0625 0.171875,-1.98958 0.515625,-2.78125 0.354167,-0.80208 0.890625,-1.40104 1.609375,-1.79687 0.729167,-0.40625 1.515625,-0.60938 2.359375,-0.60938 1.072917,0 1.947917,0.27084 2.625,0.8125 0.677083,0.54167 1.114583,1.3125 1.3125,2.3125 l -1.625,0.25 c -0.15625,-0.66666 -0.432292,-1.16666 -0.828125,-1.5 -0.395833,-0.33333 -0.869792,-0.5 -1.421875,-0.5 -0.84375,0 -1.53125,0.30209 -2.0625,0.90625 -0.520833,0.60417 -0.78125,1.5573 -0.78125,2.85938 0,1.32292 0.255208,2.28646 0.765625,2.89062 0.510417,0.59375 1.171875,0.89063 1.984375,0.89063 0.65625,0 1.203125,-0.19792 1.640625,-0.59375 0.4375,-0.40625 0.71875,-1.02604 0.84375,-1.85938 z m 9.640625,0.4375 1.71875,0.21875 c -0.270833,1 -0.776042,1.78125 -1.515625,2.34375 -0.729167,0.55209 -1.666667,0.82813 -2.8125,0.82813 -1.4375,0 -2.578125,-0.44271 -3.421875,-1.32813 -0.84375,-0.88541 -1.265625,-2.1302 -1.265625,-3.73437 0,-1.65625 0.421875,-2.94271 1.265625,-3.85938 0.854167,-0.91666 1.963542,-1.375 3.328125,-1.375 1.322917,0 2.401042,0.44792 3.234375,1.34375 0.833333,0.89584 1.25,2.16146 1.25,3.79688 0,0.0937 -0.0052,0.23958 -0.01563,0.4375 l -7.34375,0 c 0.0625,1.08333 0.369792,1.91146 0.921875,2.48437 0.552083,0.57292 1.239583,0.85938 2.0625,0.85938 0.604167,0 1.119792,-0.15625 1.546875,-0.46875 0.4375,-0.32292 0.786458,-0.83854 1.04688,-1.54688 z m -5.484375,-2.70312 5.5,0 c -0.07292,-0.82292 -0.28125,-1.44271 -0.625,-1.85938 -0.53125,-0.64583 -1.223958,-0.96875 -2.078125,-0.96875 -0.760417,0 -1.40625,0.26042 -1.9375,0.78125 -0.520833,0.51042 -0.807292,1.19271 -0.859375,2.04688 z"
       id="path3464"
       style="fill:#000000;fill-rule:nonzero" />
    <path
       d="m 14,686.2546 103.11811,0 0,42.04724 -103.11811,0 z"
       id="path3466"
       style="fill:#000000;fill-opacity:0;fill-rule:nonzero" />
    <path
       d="m 24.265625,710.6146 0,-11.45313 5.078125,0 c 1.020833,0 1.796875,0.10417 2.328125,0.3125 0.53125,0.19792 0.953125,0.5573 1.265625,1.07813 0.322917,0.52083 0.484375,1.09896 0.484375,1.73437 0,0.8125 -0.265625,1.5 -0.796875,2.0625 -0.520833,0.55209 -1.333333,0.90105 -2.4375,1.04688 0.40625,0.19791 0.713542,0.39062 0.921875,0.57812 0.4375,0.40625 0.854167,0.91146 1.25,1.51563 l 2,3.125 -1.90625,0 -1.515625,-2.39063 c -0.447917,-0.6875 -0.817708,-1.21354 -1.109375,-1.57812 -0.28125,-0.36459 -0.536458,-0.6198 -0.765625,-0.76563 -0.21875,-0.14583 -0.447917,-0.24479 -0.6875,-0.29687 -0.166667,-0.0417 -0.447917,-0.0625 -0.84375,-0.0625 l -1.75,0 0,5.09375 z m 1.515625,-6.40625 3.25,0 c 0.697917,0 1.239583,-0.0677 1.625,-0.20313 0.395833,-0.14583 0.692708,-0.375 0.890625,-0.6875 0.208333,-0.32291 0.3125,-0.66666 0.3125,-1.03125 0,-0.54167 -0.197917,-0.98437 -0.59375,-1.32812 C 30.869792,700.60418 30.25,700.4271 29.40625,700.4271 l -3.625,0 z m 9.304687,2.25 c 0,-1.53125 0.427083,-2.66667 1.28125,-3.40625 0.71875,-0.61459 1.588542,-0.92188 2.609375,-0.92188 1.145833,0 2.078125,0.375 2.796875,1.125 0.729167,0.73959 1.09375,1.77084 1.09375,3.09375 0,1.0625 -0.161458,1.90104 -0.484375,2.51563 -0.322917,0.61458 -0.791667,1.09375 -1.40625,1.4375 -0.604167,0.33333 -1.270833,0.5 -2,0.5 -1.15625,0 -2.09375,-0.36979 -2.8125,-1.10938 -0.71875,-0.75 -1.078125,-1.82812 -1.078125,-3.23437 z m 1.453125,0 c 0,1.0625 0.229167,1.85937 0.6875,2.39062 0.46875,0.53125 1.052083,0.79688 1.75,0.79688 0.697917,0 1.276042,-0.26563 1.734375,-0.79688 0.46875,-0.53125 0.703125,-1.34375 0.703125,-2.4375 0,-1.02083 -0.234375,-1.79687 -0.703125,-2.32812 -0.458333,-0.53125 -1.036458,-0.79688 -1.734375,-0.79688 -0.697917,0 -1.28125,0.26563 -1.75,0.79688 -0.458333,0.52083 -0.6875,1.3125 -0.6875,2.375 z m 7.226563,4.15625 0,-1.14063 5.28125,-6.0625 c -0.59375,0.0313 -1.119792,0.0469 -1.578125,0.0469 l -3.390625,0 0,-1.14063 6.78125,0 0,0.92188 -4.484375,5.26562 -0.875,0.96875 c 0.635417,-0.0521 1.229167,-0.0781 1.78125,-0.0781 l 3.828125,0 0,1.21875 -7.34375,0 z m 8.75,3.1875 0,-11.48438 1.28125,0 0,1.07813 c 0.302083,-0.42709 0.640625,-0.7448 1.015625,-0.95313 0.385417,-0.20833 0.848958,-0.3125 1.390625,-0.3125 0.708333,0 1.333333,0.18229 1.875,0.54688 0.541667,0.36458 0.947917,0.8802 1.21875,1.54687 0.28125,0.65625 0.421875,1.38021 0.421875,2.17188 0,0.85417 -0.15625,1.61979 -0.46875,2.29687 -0.302083,0.67709 -0.744792,1.19792 -1.328125,1.5625 -0.572917,0.36459 -1.182292,0.54688 -1.828125,0.54688 -0.46875,0 -0.890625,-0.099 -1.265625,-0.29688 -0.364583,-0.19791 -0.666667,-0.44791 -0.90625,-0.75 l 0,4.04688 z m 1.265625,-7.29688 c 0,1.07292 0.213542,1.86459 0.640625,2.375 0.4375,0.51042 0.963542,0.76563 1.578125,0.76563 0.625,0 1.161458,-0.26563 1.609375,-0.79688 0.447917,-0.53125 0.671875,-1.34895 0.671875,-2.45312 0,-1.0625 -0.21875,-1.85417 -0.65625,-2.375 -0.4375,-0.53125 -0.958333,-0.79688 -1.5625,-0.79688 -0.59375,0 -1.125,0.28125 -1.59375,0.84375 -0.458333,0.5625 -0.6875,1.375 -0.6875,2.4375 z m 7.101562,-0.0469 c 0,-1.53125 0.427083,-2.66667 1.28125,-3.40625 0.71875,-0.61459 1.588542,-0.92188 2.609375,-0.92188 1.145833,0 2.078125,0.375 2.796875,1.125 0.729167,0.73959 1.09375,1.77084 1.09375,3.09375 0,1.0625 -0.161458,1.90104 -0.484375,2.51563 -0.322917,0.61458 -0.791667,1.09375 -1.40625,1.4375 -0.604167,0.33333 -1.270833,0.5 -2,0.5 -1.15625,0 -2.09375,-0.36979 -2.8125,-1.10938 -0.71875,-0.75 -1.078125,-1.82812 -1.078125,-3.23437 z m 1.453125,0 c 0,1.0625 0.229167,1.85937 0.6875,2.39062 0.46875,0.53125 1.052083,0.79688 1.75,0.79688 0.697917,0 1.276042,-0.26563 1.734375,-0.79688 0.46875,-0.53125 0.703125,-1.34375 0.703125,-2.4375 0,-1.02083 -0.234375,-1.79687 -0.703125,-2.32812 -0.458333,-0.53125 -1.036458,-0.79688 -1.734375,-0.79688 -0.697917,0 -1.28125,0.26563 -1.75,0.79688 -0.458333,0.52083 -0.6875,1.3125 -0.6875,2.375 z m 13.382813,1.10937 1.390625,0.1875 c -0.15625,0.94794 -0.546875,1.69274 -1.171875,2.23441 -0.614583,0.54167 -1.375,0.8125 -2.28125,0.8125 -1.135417,0 -2.052083,-0.36979 -2.75,-1.10938 -0.6875,-0.75 -1.03125,-1.81771 -1.03125,-3.20312 0,-0.89583 0.145833,-1.67708 0.4375,-2.34375 0.302083,-0.67709 0.755208,-1.1823 1.359375,-1.51563 0.614583,-0.33333 1.276042,-0.5 1.984375,-0.5 0.90625,0 1.645833,0.22917 2.21875,0.6875 0.572917,0.44792 0.9375,1.09375 1.09375,1.9375 l -1.359375,0.20313 c -0.135417,-0.55209 -0.369792,-0.96875 -0.703125,-1.25 -0.322917,-0.28125 -0.71875,-0.42188 -1.1875,-0.42188 -0.708333,0 -1.286458,0.25521 -1.734375,0.76563 -0.4375,0.5 -0.65625,1.30208 -0.65625,2.40625 0,1.11458 0.213542,1.92708 0.640625,2.4375 0.427083,0.5 0.984375,0.75 1.671875,0.75 0.552083,0 1.010417,-0.16667 1.375,-0.5 0.375,-0.34375 0.609375,-0.8698 0.703125,-1.57813 z m -1.65625,-7.14062 0.859375,-1.32813 1.59375,0 -1.765625,2.1875 -1.5,0 -1.6875,-2.1875 1.609375,0 z m 9.921875,7.51562 1.453125,0.17188 c -0.229167,0.85417 -0.65625,1.51562 -1.28125,1.98437 -0.614583,0.46875 -1.401042,0.70313 -2.359375,0.70313 -1.21875,0 -2.182292,-0.375 -2.890625,-1.125 -0.708333,-0.75 -1.0625,-1.79688 -1.0625,-3.14063 0,-1.39583 0.359375,-2.47917 1.078125,-3.25 0.71875,-0.77083 1.651042,-1.15625 2.796875,-1.15625 1.104167,0 2.005208,0.38021 2.703125,1.14063 0.708333,0.75 1.0625,1.80729 1.0625,3.17187 l 0,0.375 -6.1875,0 c 0.05209,0.91667 0.307295,1.61979 0.765625,2.10938 0.46875,0.47917 1.046875,0.71875 1.734375,0.71875 0.520833,0 0.963542,-0.13542 1.328125,-0.40625 0.364583,-0.27083 0.651042,-0.70313 0.859375,-1.29688 z m -4.609375,-2.28125 4.625,0 c -0.0625,-0.69791 -0.239583,-1.21875 -0.53125,-1.5625 -0.447917,-0.54167 -1.026042,-0.8125 -1.734375,-0.8125 -0.645833,0 -1.192708,0.21875 -1.640625,0.65625 -0.4375,0.42709 -0.677083,1 -0.71875,1.71875 z m 10.898437,3.6875 0.203125,1.25 c -0.395833,0.0833 -0.75,0.125 -1.0625,0.125 -0.510417,0 -0.90625,-0.0781 -1.1875,-0.23437 -0.28125,-0.16667 -0.479167,-0.38021 -0.59375,-0.64063 -0.114583,-0.27083 -0.171875,-0.82812 -0.171875,-1.67187 l 0,-4.76563 -1.03125,0 0,-1.09375 1.03125,0 0,-2.0625 1.40625,-0.84375 0,2.90625 1.40625,0 0,1.09375 -1.40625,0 0,4.84375 c 0,0.40625 0.02083,0.66667 0.0625,0.78125 0.05209,0.11459 0.13542,0.20834 0.25,0.28125 0.114583,0.0625 0.276042,0.0937 0.484375,0.0937 0.15625,0 0.359375,-0.0208 0.609375,-0.0625 z"
       id="path3468"
       style="fill:#000000;fill-rule:nonzero" />
    <path
       d="m 63.553806,692.27034 0,-165.19685 100.125994,0 0,165.19685 z"
       id="path3470"
       style="fill:#000000;fill-opacity:0;fill-rule:nonzero" />
    <path
       d="m 85.353806,682.27034 -9.3125,0 0,-3.51563 c 0,-0.61458 0.03125,-1.08333 0.09375,-1.40625 0.07292,-0.45833 0.21875,-0.84375 0.4375,-1.15625 0.208333,-0.3125 0.505208,-0.5625 0.890625,-0.75 0.385417,-0.1875 0.8125,-0.28125 1.28125,-0.28125 0.791667,0 1.463542,0.25521 2.015625,0.76563 0.541667,0.5 0.8125,1.40625 0.8125,2.71875 l 0,2.39062 3.78125,0 z m -4.875,-1.23438 0,-2.40625 c 0,-0.79167 -0.145833,-1.35417 -0.4375,-1.6875 -0.302083,-0.34375 -0.723958,-0.51562 -1.265625,-0.51562 -0.385417,0 -0.713542,0.099 -0.984375,0.29687 -0.28125,0.19792 -0.46875,0.45834 -0.5625,0.78125 -0.05209,0.20833 -0.07813,0.59375 -0.07813,1.15625 l 0,2.375 z m 4.875,-7.49913 -6.734375,0 0,-1.03125 1.015625,0 c -0.479167,-0.26041 -0.791667,-0.5 -0.9375,-0.71875 -0.15625,-0.22917 -0.234375,-0.47396 -0.234375,-0.73437 0,-0.38542 0.119792,-0.77605 0.359375,-1.17188 l 1.0625,0.39063 c -0.166667,0.28125 -0.25,0.55729 -0.25,0.82812 0,0.25 0.07813,0.47917 0.234375,0.6875 0.145833,0.19792 0.354167,0.33855 0.625,0.42188 0.40625,0.125 0.848958,0.1875 1.328125,0.1875 l 3.53125,0 z m -8.28125,-1.4375 -1.078125,-0.70312 0,-1.28125 1.78125,1.42187 0,1.21875 -1.78125,1.375 0,-1.3125 z m 6.109375,-7.62587 0.140625,-1.1875 c 0.697917,0.1875 1.239583,0.53646 1.625,1.04688 0.375,0.5 0.5625,1.14062 0.5625,1.92187 0,0.98959 -0.302083,1.77605 -0.90625,2.35938 -0.614583,0.57291 -1.46875,0.85937 -2.5625,0.85937 -1.135417,0 -2.015625,-0.29167 -2.640625,-0.875 -0.625,-0.59375 -0.9375,-1.35416 -0.9375,-2.28125 0,-0.90625 0.307292,-1.64062 0.921875,-2.20312 0.614583,-0.57292 1.473958,-0.85938 2.578125,-0.85938 l 0.3125,0 0,5.03125 c 0.739583,-0.0417 1.307292,-0.25 1.703125,-0.625 0.395833,-0.375 0.59375,-0.84375 0.59375,-1.40625 0,-0.42708 -0.109375,-0.78645 -0.328125,-1.07812 -0.229167,-0.30209 -0.583333,-0.53646 -1.0625,-0.70313 z m -1.84375,3.75 0,-3.76562 c -0.572917,0.0521 -1,0.1979 -1.28125,0.4375 -0.4375,0.36458 -0.65625,0.83333 -0.65625,1.40625 0,0.53125 0.177083,0.97395 0.53125,1.32812 0.34375,0.35417 0.8125,0.55208 1.40625,0.59375 z m 1.546875,-10.94372 0.140625,-1.125 c 0.78125,0.11458 1.390625,0.42708 1.828125,0.9375 0.4375,0.51041 0.65625,1.1302 0.65625,1.85937 0,0.92709 -0.302083,1.67188 -0.90625,2.23438 -0.604167,0.55208 -1.46875,0.82812 -2.59375,0.82812 -0.729167,0 -1.364583,-0.11979 -1.90625,-0.35937 -0.552083,-0.23959 -0.963542,-0.60417 -1.234375,-1.09375 -0.270833,-0.48959 -0.40625,-1.02605 -0.40625,-1.60938 0,-0.72917 0.1875,-1.32812 0.5625,-1.79687 0.364583,-0.46875 0.885417,-0.76563 1.5625,-0.89063 l 0.171875,1.10938 c -0.447917,0.10417 -0.786458,0.29167 -1.015625,0.5625 -0.229167,0.26041 -0.34375,0.58333 -0.34375,0.96875 0,0.57291 0.208333,1.04166 0.625,1.40625 0.40625,0.35417 1.057292,0.53125 1.953125,0.53125 0.90625,0 1.567708,-0.17188 1.984375,-0.51563 0.40625,-0.34375 0.609375,-0.79687 0.609375,-1.35937 0,-0.44792 -0.135417,-0.82292 -0.40625,-1.125 -0.28125,-0.30209 -0.708333,-0.48959 -1.28125,-0.5625 z m -5.8125,1.96875 -1.078125,-0.70313 0,-1.28125 1.78125,1.42188 0,1.21875 -1.78125,1.375 0,-1.3125 z m 6.109375,-8.85156 0.140625,-1.1875 c 0.697917,0.1875 1.239583,0.53646 1.625,1.04687 0.375,0.5 0.5625,1.14063 0.5625,1.92188 0,0.98958 -0.302083,1.77604 -0.90625,2.35937 -0.614583,0.57292 -1.46875,0.85938 -2.5625,0.85938 -1.135417,0 -2.015625,-0.29167 -2.640625,-0.875 -0.625,-0.59375 -0.9375,-1.35417 -0.9375,-2.28125 0,-0.90625 0.307292,-1.64063 0.921875,-2.20313 0.614583,-0.57291 1.473958,-0.85937 2.578125,-0.85937 l 0.3125,0 0,5.03125 c 0.739583,-0.0417 1.307292,-0.25 1.703125,-0.625 0.395833,-0.375 0.59375,-0.84375 0.59375,-1.40625 0,-0.42709 -0.109375,-0.78646 -0.328125,-1.07813 -0.229167,-0.30208 -0.583333,-0.53645 -1.0625,-0.70312 z m -1.84375,3.75 0,-3.76563 c -0.572917,0.0521 -1,0.1979 -1.28125,0.4375 -0.4375,0.36459 -0.65625,0.83334 -0.65625,1.40625 0,0.53125 0.177083,0.97396 0.53125,1.32813 0.34375,0.35417 0.8125,0.55208 1.40625,0.59375 z m 4.015625,-6.53748 -6.734375,0 0,-1.03125 1.015625,0 c -0.479167,-0.26041 -0.791667,-0.5 -0.9375,-0.71875 -0.15625,-0.22917 -0.234375,-0.47396 -0.234375,-0.73437 0,-0.38542 0.119792,-0.77605 0.359375,-1.17188 l 1.0625,0.39063 c -0.166667,0.28125 -0.25,0.55729 -0.25,0.82812 0,0.25 0.07813,0.47917 0.234375,0.6875 0.145833,0.19792 0.354167,0.33855 0.625,0.42188 0.40625,0.125 0.848958,0.1875 1.328125,0.1875 l 3.53125,0 z m 2.578125,-4.45399 -9.3125,0 0,-1.03125 0.875,0 c -0.34375,-0.25 -0.598958,-0.52604 -0.765625,-0.82813 -0.177083,-0.3125 -0.265625,-0.69271 -0.265625,-1.14062 0,-0.57292 0.151042,-1.07813 0.453125,-1.51563 0.291667,-0.4375 0.708333,-0.76562 1.25,-0.98437 0.53125,-0.22917 1.119792,-0.34375 1.765625,-0.34375 0.6875,0 1.307292,0.125 1.859375,0.375 0.552083,0.23958 0.979167,0.59895 1.28125,1.07812 0.291667,0.46875 0.4375,0.96355 0.4375,1.48438 0,0.375 -0.07813,0.71354 -0.234375,1.01562 -0.166667,0.30209 -0.375,0.55209 -0.625,0.75 l 3.28125,0 z m -5.90625,-1.03125 c 0.864583,0 1.505208,-0.17708 1.921875,-0.53125 0.416667,-0.35417 0.625,-0.77604 0.625,-1.26563 0,-0.51041 -0.213542,-0.94791 -0.640625,-1.3125 -0.4375,-0.36458 -1.104167,-0.54687 -2,-0.54687 -0.864583,0 -1.510417,0.17708 -1.9375,0.53125 -0.427083,0.35417 -0.640625,0.77604 -0.640625,1.26562 0,0.48959 0.229167,0.92188 0.6875,1.29688 0.447917,0.375 1.109375,0.5625 1.984375,0.5625 z m 2.5,-10.77185 c 0.354167,0.41667 0.609375,0.82292 0.765625,1.21875 0.145833,0.38541 0.21875,0.80208 0.21875,1.25 0,0.75 -0.182292,1.32292 -0.546875,1.71875 -0.364583,0.39583 -0.828125,0.59375 -1.390625,0.59375 -0.322917,0 -0.619792,-0.0729 -0.890625,-0.21875 -0.28125,-0.15625 -0.505208,-0.35417 -0.671875,-0.59375 -0.166667,-0.25 -0.291667,-0.52604 -0.375,-0.82813 -0.05209,-0.21875 -0.109378,-0.55729 -0.171875,-1.01562 -0.104167,-0.91667 -0.234375,-1.59375 -0.390625,-2.03125 -0.15625,-0.0104 -0.255208,-0.0156 -0.296875,-0.0156 -0.46875,0 -0.796875,0.10938 -0.984375,0.32813 -0.260417,0.29167 -0.390625,0.72396 -0.390625,1.29687 0,0.54167 0.09375,0.94271 0.28125,1.20313 0.1875,0.25 0.520833,0.4375 1,0.5625 l -0.140625,1.10937 c -0.479167,-0.0937 -0.864583,-0.2552 -1.15625,-0.48437 -0.302083,-0.23959 -0.53125,-0.57813 -0.6875,-1.01563 -0.15625,-0.44791 -0.234375,-0.95833 -0.234375,-1.53125 0,-0.58333 0.06771,-1.05208 0.203125,-1.40625 0.135417,-0.36458 0.307292,-0.6302 0.515625,-0.79687 0.197917,-0.16667 0.453125,-0.28646 0.765625,-0.35938 0.197917,-0.0313 0.552083,-0.0469 1.0625,-0.0469 l 1.515625,0 c 1.0625,0 1.734375,-0.026 2.015625,-0.0781 0.28125,-0.0521 0.552083,-0.14582 0.8125,-0.28125 l 0,1.1875 c -0.239583,0.11459 -0.515625,0.19271 -0.828125,0.23438 z m -2.5625,0.0937 c 0.177083,0.41667 0.322917,1.03646 0.4375,1.85937 0.07292,0.46875 0.151042,0.80209 0.234375,1 0.08333,0.19792 0.208333,0.34896 0.375,0.45313 0.15625,0.10417 0.333333,0.15625 0.53125,0.15625 0.302083,0 0.557292,-0.11458 0.765625,-0.34375 0.197917,-0.22917 0.296875,-0.56771 0.296875,-1.01563 0,-0.4375 -0.09375,-0.82812 -0.28125,-1.17187 -0.197917,-0.34375 -0.463542,-0.59896 -0.796875,-0.76563 -0.25,-0.11458 -0.630208,-0.17187 -1.140625,-0.17187 z m -4.1875,1.75 -1.78125,-0.84375 0,-1.5 1.78125,1.39062 z m 7.578125,-4.86561 -6.734375,0 0,-1.03125 0.953125,0 c -0.739583,-0.48958 -1.109375,-1.20312 -1.109375,-2.14062 0,-0.40625 0.07292,-0.77605 0.21875,-1.10938 0.145833,-0.34375 0.338542,-0.59895 0.578125,-0.76562 0.229167,-0.17709 0.510417,-0.29688 0.84375,-0.35938 0.208333,-0.0417 0.578125,-0.0625 1.109375,-0.0625 l 4.140625,0 0,1.14063 -4.09375,0 c -0.46875,0 -0.817708,0.0469 -1.046875,0.14062 -0.229167,0.0833 -0.411458,0.23958 -0.546875,0.46875 -0.145833,0.21875 -0.21875,0.47917 -0.21875,0.78125 0,0.48959 0.15625,0.91146 0.46875,1.26563 0.302083,0.35417 0.885417,0.53125 1.75,0.53125 l 3.6875,0 z"
       id="path3472"
       style="fill:#000000;fill-rule:nonzero" />
    <path
       d="m 63.553806,810.39633 0,-165.19685 79.086624,0 0,165.19685 z"
       id="path3474"
       style="fill:#000000;fill-opacity:0;fill-rule:nonzero" />
    <path
       d="m 85.353806,800.41196 -9.3125,0 0,-1.26562 7.3125,-4.89063 -7.3125,0 0,-1.1875 9.3125,0 0,1.26563 -7.3125,4.89062 7.3125,0 z m -2.171875,-14.10953 0.140625,-1.1875 c 0.697917,0.1875 1.239583,0.53646 1.625,1.04688 0.375,0.5 0.5625,1.14062 0.5625,1.92187 0,0.98959 -0.302083,1.77605 -0.90625,2.35938 -0.614583,0.57291 -1.46875,0.85937 -2.5625,0.85937 -1.135417,0 -2.015625,-0.29167 -2.640625,-0.875 -0.625,-0.59375 -0.9375,-1.35416 -0.9375,-2.28125 0,-0.90625 0.307292,-1.64062 0.921875,-2.20312 0.614583,-0.57292 1.473958,-0.85938 2.578125,-0.85938 l 0.3125,0 0,5.03125 c 0.739583,-0.0417 1.307292,-0.25 1.703125,-0.625 0.395833,-0.375 0.59375,-0.84375 0.59375,-1.40625 0,-0.42708 -0.109375,-0.78645 -0.328125,-1.07812 -0.229167,-0.30209 -0.583333,-0.53646 -1.0625,-0.70313 z m -1.84375,3.75 0,-3.76562 c -0.572917,0.0521 -1,0.1979 -1.28125,0.4375 -0.4375,0.36458 -0.65625,0.83333 -0.65625,1.40625 0,0.53125 0.177083,0.97395 0.53125,1.32812 0.34375,0.35417 0.8125,0.55208 1.40625,0.59375 z m 4.015625,-8.4281 -6.734375,2.5625 0,-1.20312 4.03125,-1.4375 c 0.4375,-0.15625 0.890625,-0.30209 1.359375,-0.4375 -0.354167,-0.10417 -0.78125,-0.24479 -1.28125,-0.42188 l -4.109375,-1.5 0,-1.17187 6.734375,2.54687 z m 2.59375,-4.74219 -1.0625,0.14063 c 0.0625,-0.25 0.09375,-0.46875 0.09375,-0.65625 0,-0.26042 -0.04167,-0.46355 -0.125,-0.60938 -0.08333,-0.15625 -0.203125,-0.28125 -0.359375,-0.375 -0.114583,-0.0729 -0.395833,-0.1927 -0.84375,-0.35937 -0.0625,-0.0208 -0.15625,-0.052 -0.28125,-0.0937 l -6.75,2.5625 0,-1.23438 3.890625,-1.40625 c 0.5,-0.17708 1.020833,-0.33854 1.5625,-0.48437 -0.520833,-0.13542 -1.03125,-0.29167 -1.53125,-0.46875 l -3.921875,-1.45313 0,-1.14062 6.84375,2.5625 c 0.739583,0.28125 1.25,0.49479 1.53125,0.64062 0.375,0.20833 0.651042,0.44271 0.828125,0.70313 0.177083,0.26041 0.265625,0.57291 0.265625,0.9375 0,0.21875 -0.04687,0.46354 -0.140625,0.73437 z m -5.0625,-11.10156 0.140625,-1.125 c 0.78125,0.11459 1.390625,0.42709 1.828125,0.9375 0.4375,0.51042 0.65625,1.13021 0.65625,1.85938 0,0.92708 -0.302083,1.67187 -0.90625,2.23437 -0.604167,0.55209 -1.46875,0.82813 -2.59375,0.82813 -0.729167,0 -1.364583,-0.11979 -1.90625,-0.35938 -0.552083,-0.23958 -0.963542,-0.60416 -1.234375,-1.09375 -0.270833,-0.48958 -0.40625,-1.02604 -0.40625,-1.60937 0,-0.72917 0.1875,-1.32813 0.5625,-1.79688 0.364583,-0.46875 0.885417,-0.76562 1.5625,-0.89062 l 0.171875,1.10937 c -0.447917,0.10417 -0.786458,0.29167 -1.015625,0.5625 -0.229167,0.26042 -0.34375,0.58334 -0.34375,0.96875 0,0.57292 0.208333,1.04167 0.625,1.40625 0.40625,0.35417 1.057292,0.53125 1.953125,0.53125 0.90625,0 1.567708,-0.17187 1.984375,-0.51562 0.40625,-0.34375 0.609375,-0.79688 0.609375,-1.35938 0,-0.44791 -0.135417,-0.82291 -0.40625,-1.125 -0.28125,-0.30208 -0.708333,-0.48958 -1.28125,-0.5625 z m -5.8125,1.96875 -1.078125,-0.70312 0,-1.28125 1.78125,1.42187 0,1.21875 -1.78125,1.375 0,-1.3125 z m 6.109375,-8.85156 0.140625,-1.1875 c 0.697917,0.1875 1.239583,0.53646 1.625,1.04687 0.375,0.5 0.5625,1.14063 0.5625,1.92188 0,0.98958 -0.302083,1.77604 -0.90625,2.35937 -0.614583,0.57292 -1.46875,0.85938 -2.5625,0.85938 -1.135417,0 -2.015625,-0.29167 -2.640625,-0.875 -0.625,-0.59375 -0.9375,-1.35417 -0.9375,-2.28125 0,-0.90625 0.307292,-1.64063 0.921875,-2.20313 0.614583,-0.57291 1.473958,-0.85937 2.578125,-0.85937 l 0.3125,0 0,5.03125 c 0.739583,-0.0417 1.307292,-0.25 1.703125,-0.625 0.395833,-0.375 0.59375,-0.84375 0.59375,-1.40625 0,-0.42709 -0.109375,-0.78646 -0.328125,-1.07813 -0.229167,-0.30208 -0.583333,-0.53645 -1.0625,-0.70312 z m -1.84375,3.75 0,-3.76563 c -0.572917,0.0521 -1,0.1979 -1.28125,0.4375 -0.4375,0.36459 -0.65625,0.83334 -0.65625,1.40625 0,0.53125 0.177083,0.97396 0.53125,1.32813 0.34375,0.35417 0.8125,0.55208 1.40625,0.59375 z m 4.015625,-6.53748 -6.734375,0 0,-1.03125 1.015625,0 c -0.479167,-0.26041 -0.791667,-0.5 -0.9375,-0.71875 -0.15625,-0.22917 -0.234375,-0.47396 -0.234375,-0.73437 0,-0.38542 0.119792,-0.77605 0.359375,-1.17188 l 1.0625,0.39063 c -0.166667,0.28125 -0.25,0.55729 -0.25,0.82812 0,0.25 0.07813,0.47917 0.234375,0.6875 0.145833,0.19792 0.354167,0.33855 0.625,0.42188 0.40625,0.125 0.848958,0.1875 1.328125,0.1875 l 3.53125,0 z m 2.578125,-4.45401 -9.3125,0 0,-1.03125 0.875,0 c -0.34375,-0.25 -0.598958,-0.52604 -0.765625,-0.82812 -0.177083,-0.3125 -0.265625,-0.69271 -0.265625,-1.14063 0,-0.57291 0.151042,-1.07812 0.453125,-1.51562 0.291667,-0.4375 0.708333,-0.76563 1.25,-0.98438 0.53125,-0.22917 1.119792,-0.34375 1.765625,-0.34375 0.6875,0 1.307292,0.125 1.859375,0.375 0.552083,0.23959 0.979167,0.59896 1.28125,1.07813 0.291667,0.46875 0.4375,0.96354 0.4375,1.48437 0,0.375 -0.07813,0.71354 -0.234375,1.01563 -0.166667,0.30208 -0.375,0.55208 -0.625,0.75 l 3.28125,0 z m -5.90625,-1.03125 c 0.864583,0 1.505208,-0.17708 1.921875,-0.53125 0.416667,-0.35417 0.625,-0.77604 0.625,-1.26562 0,-0.51042 -0.213542,-0.94792 -0.640625,-1.3125 -0.4375,-0.36459 -1.104167,-0.54688 -2,-0.54688 -0.864583,0 -1.510417,0.17708 -1.9375,0.53125 -0.427083,0.35417 -0.640625,0.77604 -0.640625,1.26563 0,0.48958 0.229167,0.92187 0.6875,1.29687 0.447917,0.375 1.109375,0.5625 1.984375,0.5625 z m 2.5,-10.77185 c 0.354167,0.41667 0.609375,0.82292 0.765625,1.21875 0.145833,0.38542 0.21875,0.80209 0.21875,1.25 0,0.75 -0.182292,1.32292 -0.546875,1.71875 -0.364583,0.39583 -0.828125,0.59375 -1.390625,0.59375 -0.322917,0 -0.619792,-0.0729 -0.890625,-0.21875 -0.28125,-0.15625 -0.505208,-0.35416 -0.671875,-0.59375 -0.166667,-0.25 -0.291667,-0.52604 -0.375,-0.82812 -0.05209,-0.21875 -0.109378,-0.5573 -0.171875,-1.01563 -0.104167,-0.91667 -0.234375,-1.59375 -0.390625,-2.03125 -0.15625,-0.0104 -0.255208,-0.0156 -0.296875,-0.0156 -0.46875,0 -0.796875,0.10937 -0.984375,0.32812 -0.260417,0.29167 -0.390625,0.72396 -0.390625,1.29688 0,0.54167 0.09375,0.94271 0.28125,1.20312 0.1875,0.25 0.520833,0.4375 1,0.5625 l -0.140625,1.10938 c -0.479167,-0.0937 -0.864583,-0.25521 -1.15625,-0.48438 -0.302083,-0.23958 -0.53125,-0.57812 -0.6875,-1.01562 -0.15625,-0.44792 -0.234375,-0.95834 -0.234375,-1.53125 0,-0.58333 0.06771,-1.05208 0.203125,-1.40625 0.135417,-0.36459 0.307292,-0.63021 0.515625,-0.79688 0.197917,-0.16667 0.453125,-0.28646 0.765625,-0.35937 0.197917,-0.0313 0.552083,-0.0469 1.0625,-0.0469 l 1.515625,0 c 1.0625,0 1.734375,-0.026 2.015625,-0.0781 0.28125,-0.0521 0.552083,-0.14582 0.8125,-0.28125 l 0,1.1875 c -0.239583,0.11458 -0.515625,0.1927 -0.828125,0.23437 z m -2.5625,0.0937 c 0.177083,0.41667 0.322917,1.03646 0.4375,1.85938 0.07292,0.46875 0.151042,0.80208 0.234375,1 0.08333,0.19791 0.208333,0.34895 0.375,0.45312 0.15625,0.10417 0.333333,0.15625 0.53125,0.15625 0.302083,0 0.557292,-0.11458 0.765625,-0.34375 0.197917,-0.22917 0.296875,-0.56771 0.296875,-1.01562 0,-0.4375 -0.09375,-0.82813 -0.28125,-1.17188 -0.197917,-0.34375 -0.463542,-0.59895 -0.796875,-0.76562 -0.25,-0.11459 -0.630208,-0.17188 -1.140625,-0.17188 z m -4.1875,1.75 -1.78125,-0.84375 0,-1.5 1.78125,1.39063 z m 7.578125,-4.8656 -6.734375,0 0,-1.03123 0.953125,0 c -0.739583,-0.48959 -1.109375,-1.20313 -1.109375,-2.14063 0,-0.40625 0.07292,-0.77604 0.21875,-1.10937 0.145833,-0.34375 0.338542,-0.59896 0.578125,-0.76563 0.229167,-0.17708 0.510417,-0.29687 0.84375,-0.35937 0.208333,-0.0417 0.578125,-0.0625 1.109375,-0.0625 l 4.140625,0 0,1.14062 -4.09375,0 c -0.46875,0 -0.817708,0.0469 -1.046875,0.14063 -0.229167,0.0833 -0.411458,0.23958 -0.546875,0.46875 -0.145833,0.21875 -0.21875,0.47916 -0.21875,0.78125 0,0.48958 0.15625,0.91145 0.46875,1.26562 0.302083,0.35417 0.885417,0.53125 1.75,0.53125 l 3.6875,0 z"
       id="path3476"
       style="fill:#000000;fill-rule:nonzero" />
    <path
       d="m 186.19423,810.39633 100.12599,0 0,82.07873 -100.12599,0 z"
       id="path3478"
       style="fill:#000000;fill-opacity:0;fill-rule:nonzero" />
    <path
       d="m 218.98769,830.7407 1.51562,0.375 c -0.3125,1.25 -0.88542,2.20312 -1.71875,2.85937 -0.82291,0.65625 -1.82812,0.98438 -3.01562,0.98438 -1.23959,0 -2.2448,-0.25 -3.01563,-0.75 -0.77083,-0.51042 -1.35937,-1.23959 -1.76562,-2.1875 -0.40625,-0.95833 -0.60938,-1.98438 -0.60938,-3.07813 0,-1.19791 0.22917,-2.23958 0.6875,-3.125 0.45833,-0.88541 1.10417,-1.55729 1.9375,-2.01562 0.84375,-0.46875 1.77084,-0.70313 2.78125,-0.70313 1.14583,0 2.10938,0.29167 2.89063,0.875 0.78125,0.58333 1.32812,1.40625 1.64062,2.46875 l -1.5,0.34375 c -0.26041,-0.83333 -0.64583,-1.4375 -1.15625,-1.8125 -0.5,-0.38541 -1.13542,-0.57812 -1.90625,-0.57812 -0.875,0 -1.60937,0.21354 -2.20312,0.64062 -0.59375,0.41667 -1.01042,0.98438 -1.25,1.70313 -0.23959,0.70833 -0.35938,1.4375 -0.35938,2.1875 0,0.97917 0.14063,1.83333 0.42188,2.5625 0.29167,0.71875 0.73437,1.26041 1.32812,1.625 0.60417,0.35417 1.25521,0.53125 1.95313,0.53125 0.84375,0 1.55729,-0.24479 2.14062,-0.73438 0.59375,-0.48958 0.9948,-1.21354 1.20313,-2.17187 z m -3.59375,-9.17188 0.85937,-1.32812 1.59375,0 -1.76562,2.1875 -1.5,0 -1.6875,-2.1875 1.60937,0 z m 12.21094,12.15625 c -0.52083,0.44792 -1.02083,0.76563 -1.5,0.95313 -0.47917,0.17708 -0.99479,0.26562 -1.54688,0.26562 -0.91667,0 -1.61979,-0.22396 -2.10937,-0.67187 -0.48959,-0.44792 -0.73438,-1.01563 -0.73438,-1.70313 0,-0.40625 0.0937,-0.77604 0.28125,-1.10937 0.1875,-0.34375 0.42708,-0.61459 0.71875,-0.8125 0.30209,-0.20833 0.64063,-0.36458 1.01563,-0.46875 0.28125,-0.0729 0.69791,-0.14063 1.25,-0.20313 1.13541,-0.13541 1.97395,-0.29687 2.51562,-0.48437 l 0,-0.375 c 0,-0.57292 -0.13021,-0.97396 -0.39062,-1.20313 -0.36459,-0.32291 -0.90105,-0.48437 -1.60938,-0.48437 -0.65625,0 -1.14583,0.11979 -1.46875,0.35937 -0.3125,0.22917 -0.54167,0.63542 -0.6875,1.21875 l -1.375,-0.1875 c 0.125,-0.58333 0.32813,-1.05729 0.60938,-1.42187 0.29167,-0.36459 0.70833,-0.64063 1.25,-0.82813 0.54167,-0.19791 1.16667,-0.29687 1.875,-0.29687 0.70833,0 1.28125,0.0833 1.71875,0.25 0.44791,0.16667 0.77604,0.375 0.98437,0.625 0.20833,0.25 0.35417,0.56771 0.4375,0.95312 0.0521,0.23959 0.0781,0.67188 0.0781,1.29688 l 0,1.875 c 0,1.3125 0.026,2.14062 0.0781,2.48437 0.0625,0.34375 0.18226,0.67709 0.35938,1 l -1.46875,0 c -0.14583,-0.29167 -0.23958,-0.63542 -0.28125,-1.03125 z m -0.10938,-3.14062 c -0.51041,0.20833 -1.27604,0.38542 -2.29687,0.53125 -0.58333,0.0833 -0.99479,0.17708 -1.23438,0.28125 -0.23958,0.10417 -0.42708,0.26042 -0.5625,0.46875 -0.125,0.19791 -0.1875,0.41666 -0.1875,0.65625 0,0.375 0.14063,0.6875 0.42188,0.9375 0.29167,0.25 0.70833,0.375 1.25,0.375 0.54167,0 1.02083,-0.11458 1.4375,-0.34375 0.42708,-0.23959 0.73958,-0.56771 0.9375,-0.98438 0.15625,-0.3125 0.23437,-0.78125 0.23437,-1.40625 z m 3.03906,1.6875 1.39063,-0.21875 c 0.0729,0.5625 0.28645,0.99479 0.64062,1.29687 0.36459,0.29167 0.86459,0.4375 1.5,0.4375 0.64583,0 1.125,-0.13021 1.4375,-0.39062 0.3125,-0.27083 0.46875,-0.58333 0.46875,-0.9375 0,-0.3125 -0.13542,-0.5625 -0.40625,-0.75 -0.19791,-0.125 -0.67708,-0.28125 -1.4375,-0.46875 -1.03125,-0.26042 -1.75,-0.48438 -2.15625,-0.67188 -0.39583,-0.19791 -0.69792,-0.46354 -0.90625,-0.79687 -0.19791,-0.33333 -0.29687,-0.70313 -0.29687,-1.10938 0,-0.375 0.0833,-0.71875 0.25,-1.03125 0.16667,-0.3125 0.39583,-0.57292 0.6875,-0.78125 0.21875,-0.16667 0.51562,-0.30208 0.89062,-0.40625 0.38542,-0.11458 0.79167,-0.17187 1.21875,-0.17187 0.65625,0 1.22917,0.0937 1.71875,0.28125 0.48959,0.1875 0.84896,0.44271 1.07813,0.76562 0.23958,0.3125 0.40625,0.73958 0.5,1.28125 l -1.375,0.1875 c -0.0625,-0.42708 -0.24476,-0.76041 -0.54688,-1 -0.30208,-0.23958 -0.72395,-0.35937 -1.26562,-0.35937 -0.64583,0 -1.10938,0.10937 -1.39063,0.32812 -0.27083,0.20833 -0.40625,0.45313 -0.40625,0.73438 0,0.1875 0.0573,0.35417 0.17188,0.5 0.11458,0.14583 0.29166,0.27083 0.53125,0.375 0.14583,0.0521 0.5625,0.17186 1.25,0.35937 0.98958,0.26042 1.68229,0.47917 2.07812,0.65625 0.39583,0.16667 0.70313,0.41146 0.92188,0.73438 0.22917,0.32291 0.34375,0.72395 0.34375,1.20312 0,0.46875 -0.14063,0.91146 -0.42188,1.32813 -0.27083,0.40625 -0.66667,0.72395 -1.1875,0.95312 -0.51041,0.22917 -1.08854,0.34375 -1.73437,0.34375 -1.08333,0 -1.90625,-0.22396 -2.46875,-0.67187 -0.5625,-0.44792 -0.92188,-1.11459 -1.07813,-2 z m 8.03125,-1.67188 c 0,-1.53125 0.42708,-2.66666 1.28125,-3.40625 0.71875,-0.61458 1.58855,-0.92187 2.60938,-0.92187 1.14583,0 2.07812,0.375 2.79687,1.125 0.72917,0.73958 1.09375,1.77083 1.09375,3.09375 0,1.0625 -0.16146,1.90104 -0.48437,2.51562 -0.32292,0.61459 -0.79167,1.09375 -1.40625,1.4375 -0.60417,0.33333 -1.27083,0.5 -2,0.5 -1.15625,0 -2.09375,-0.36979 -2.8125,-1.10937 -0.71875,-0.75 -1.07813,-1.82813 -1.07813,-3.23438 z m 1.45313,0 c 0,1.0625 0.22917,1.85938 0.6875,2.39063 0.46875,0.53125 1.05208,0.79687 1.75,0.79687 0.69791,0 1.27604,-0.26562 1.73437,-0.79687 0.46875,-0.53125 0.70313,-1.34375 0.70313,-2.4375 0,-1.02083 -0.23438,-1.79688 -0.70313,-2.32813 -0.45833,-0.53125 -1.03646,-0.79687 -1.73437,-0.79687 -0.69792,0 -1.28125,0.26562 -1.75,0.79687 -0.45833,0.52083 -0.6875,1.3125 -0.6875,2.375 z m 10.27344,4.15625 -3.15625,-8.29687 1.48437,0 1.78125,4.96875 c 0.19792,0.53125 0.375,1.08854 0.53125,1.67187 0.125,-0.4375 0.30208,-0.96354 0.53125,-1.57812 l 1.84375,-5.0625 1.4375,0 -3.14062,8.29687 z m 5.64062,3.20313 -0.15625,-1.32813 c 0.30209,0.0833 0.56771,0.125 0.79688,0.125 0.3125,0 0.5625,-0.0521 0.75,-0.15625 0.1875,-0.10417 0.34375,-0.25 0.46875,-0.4375 0.0833,-0.13541 0.22396,-0.48437 0.42187,-1.04687 0.0313,-0.0729 0.0729,-0.1875 0.125,-0.34375 l -3.14062,-8.3125 1.51562,0 1.71875,4.79687 c 0.22917,0.61459 0.43229,1.25521 0.60938,1.92188 0.15625,-0.64583 0.34895,-1.27604 0.57812,-1.89063 l 1.76563,-4.82812 1.40625,0 -3.15625,8.4375 c -0.33333,0.91667 -0.59375,1.54687 -0.78125,1.89062 -0.25,0.45833 -0.53646,0.79688 -0.85938,1.01563 -0.32291,0.21875 -0.70833,0.32812 -1.15625,0.32812 -0.27083,0 -0.57292,-0.0573 -0.90625,-0.17187 z m 2.73438,-12.53125 1.04687,-2.1875 1.84375,0 -1.71875,2.1875 z"
       id="path3480"
       style="fill:#000000;fill-rule:nonzero" />
    <path
       d="m 222.19472,856.94382 0,-11.48437 1.28125,0 0,1.07812 c 0.30208,-0.42708 0.64062,-0.74479 1.01562,-0.95312 0.38542,-0.20833 0.84896,-0.3125 1.39063,-0.3125 0.70833,0 1.33333,0.18229 1.875,0.54687 0.54167,0.36459 0.94792,0.88021 1.21875,1.54688 0.28125,0.65625 0.42187,1.3802 0.42187,2.17187 0,0.85417 -0.15625,1.61979 -0.46875,2.29688 -0.30208,0.67708 -0.74479,1.19791 -1.32812,1.5625 -0.57292,0.36458 -1.1823,0.54687 -1.82813,0.54687 -0.46875,0 -0.89062,-0.099 -1.26562,-0.29687 -0.36459,-0.19792 -0.66667,-0.44792 -0.90625,-0.75 l 0,4.04687 z m 1.26562,-7.29687 c 0,1.07291 0.21354,1.86458 0.64063,2.375 0.4375,0.51041 0.96354,0.76562 1.57812,0.76562 0.625,0 1.16146,-0.26562 1.60938,-0.79687 0.44791,-0.53125 0.67187,-1.34896 0.67187,-2.45313 0,-1.0625 -0.21875,-1.85417 -0.65625,-2.375 -0.4375,-0.53125 -0.95833,-0.79687 -1.5625,-0.79687 -0.59375,0 -1.125,0.28125 -1.59375,0.84375 -0.45833,0.5625 -0.6875,1.375 -0.6875,2.4375 z m 7.60157,4.10937 0,-11.45312 1.40625,0 0,11.45312 z m 8.99218,-1.03125 c -0.52083,0.44792 -1.02083,0.76563 -1.5,0.95313 -0.47917,0.17708 -0.99479,0.26562 -1.54687,0.26562 -0.91667,0 -1.61979,-0.22396 -2.10938,-0.67187 -0.48958,-0.44792 -0.73437,-1.01563 -0.73437,-1.70313 0,-0.40625 0.0937,-0.77604 0.28125,-1.10937 0.1875,-0.34375 0.42708,-0.61459 0.71875,-0.8125 0.30208,-0.20833 0.64062,-0.36458 1.01562,-0.46875 0.28125,-0.0729 0.69792,-0.14063 1.25,-0.20313 1.13542,-0.13541 1.97396,-0.29687 2.51563,-0.48437 l 0,-0.375 c 0,-0.57292 -0.13021,-0.97396 -0.39063,-1.20313 -0.36458,-0.32291 -0.90104,-0.48437 -1.60937,-0.48437 -0.65625,0 -1.14584,0.11979 -1.46875,0.35937 -0.3125,0.22917 -0.54167,0.63542 -0.6875,1.21875 l -1.375,-0.1875 c 0.125,-0.58333 0.32812,-1.05729 0.60937,-1.42187 0.29167,-0.36459 0.70833,-0.64063 1.25,-0.82813 0.54167,-0.19791 1.16667,-0.29687 1.875,-0.29687 0.70833,0 1.28125,0.0833 1.71875,0.25 0.44792,0.16667 0.77605,0.375 0.98438,0.625 0.20833,0.25 0.35417,0.56771 0.4375,0.95312 0.0521,0.23959 0.0781,0.67188 0.0781,1.29688 l 0,1.875 c 0,1.3125 0.026,2.14062 0.0781,2.48437 0.0625,0.34375 0.18226,0.67709 0.35937,1 l -1.46875,0 c -0.14583,-0.29167 -0.23958,-0.63542 -0.28125,-1.03125 z m -0.10937,-3.14062 c -0.51042,0.20833 -1.27605,0.38542 -2.29688,0.53125 -0.58333,0.0833 -0.99479,0.17708 -1.23437,0.28125 -0.23959,0.10417 -0.42709,0.26042 -0.5625,0.46875 -0.125,0.19791 -0.1875,0.41666 -0.1875,0.65625 0,0.375 0.14062,0.6875 0.42187,0.9375 0.29167,0.25 0.70833,0.375 1.25,0.375 0.54167,0 1.02083,-0.11458 1.4375,-0.34375 0.42709,-0.23959 0.73959,-0.56771 0.9375,-0.98438 0.15625,-0.3125 0.23438,-0.78125 0.23438,-1.40625 z m -2.625,-5.15625 1.04687,-2.1875 1.84375,0 -1.71875,2.1875 z m 6.22656,9.32812 0,-8.29687 1.26563,0 0,1.17187 c 0.60417,-0.90625 1.48437,-1.35937 2.64062,-1.35937 0.5,0 0.95833,0.0885 1.375,0.26562 0.41667,0.17709 0.72917,0.41146 0.9375,0.70313 0.20833,0.29167 0.35417,0.64062 0.4375,1.04687 0.0521,0.26042 0.0781,0.71355 0.0781,1.35938 l 0,5.10937 -1.40625,0 0,-5.04687 c 0,-0.57292 -0.0573,-1 -0.17188,-1.28125 -0.10417,-0.29167 -0.29687,-0.52083 -0.57812,-0.6875 -0.27083,-0.16667 -0.59375,-0.25 -0.96875,-0.25 -0.60417,0 -1.125,0.19271 -1.5625,0.57812 -0.42709,0.375 -0.64063,1.09375 -0.64063,2.15625 l 0,4.53125 -1.40625,0 z"
       id="path3482"
       style="fill:#000000;fill-rule:nonzero" />
    <path
       d="m 566.69556,740.3071 187.21259,0 0,35.05511 -187.21259,0 z"
       id="path3484"
       style="fill:#000000;fill-opacity:0;fill-rule:nonzero" />
    <path
       d="m 576.2737,759.1227 1.17187,-0.10938 c 0.0521,0.46875 0.17707,0.85417 0.375,1.15625 0.20833,0.29167 0.52083,0.53125 0.9375,0.71875 0.42709,0.17709 0.90625,0.26563 1.4375,0.26563 0.46875,0 0.88021,-0.0677 1.23438,-0.20313 0.36458,-0.13541 0.63541,-0.32291 0.8125,-0.5625 0.17708,-0.25 0.26562,-0.52083 0.26562,-0.8125 0,-0.29167 -0.0885,-0.54687 -0.26562,-0.76562 -0.16667,-0.21875 -0.44271,-0.40105 -0.82813,-0.54688 -0.25,-0.0937 -0.80208,-0.24479 -1.65625,-0.45312 -0.85417,-0.20833 -1.45312,-0.40104 -1.79687,-0.57813 -0.44792,-0.22917 -0.78125,-0.51562 -1,-0.85937 -0.21875,-0.35417 -0.32813,-0.74479 -0.32813,-1.17188 0,-0.46875 0.13021,-0.90625 0.39063,-1.3125 0.27083,-0.40625 0.66146,-0.71354 1.17187,-0.92187 0.52083,-0.21875 1.09375,-0.32813 1.71875,-0.32813 0.6875,0 1.29167,0.11458 1.8125,0.34375 0.53125,0.21875 0.9375,0.54688 1.21875,0.98438 0.29167,0.42708 0.44792,0.91145 0.46875,1.45312 l -1.1875,0.0937 c -0.0625,-0.59375 -0.27601,-1.03645 -0.64062,-1.32812 -0.36459,-0.30209 -0.90625,-0.45313 -1.625,-0.45313 -0.73959,0 -1.28125,0.13542 -1.625,0.40625 -0.34375,0.27083 -0.51563,0.59896 -0.51563,0.98438 0,0.33333 0.11979,0.60937 0.35938,0.82812 0.23958,0.21875 0.85937,0.44271 1.85937,0.67188 1,0.21875 1.6875,0.41145 2.0625,0.57812 0.54167,0.25 0.9375,0.56771 1.1875,0.95313 0.26042,0.38541 0.39063,0.82812 0.39063,1.32812 0,0.48959 -0.14063,0.95313 -0.42188,1.39063 -0.28125,0.4375 -0.6875,0.78125 -1.21875,1.03125 -0.53125,0.23958 -1.1302,0.35937 -1.79687,0.35937 -0.84375,0 -1.55209,-0.11979 -2.125,-0.35937 -0.5625,-0.25 -1.00521,-0.61979 -1.32813,-1.10938 -0.32291,-0.5 -0.49479,-1.05729 -0.51562,-1.67187 z m 9.17096,5.5625 0,-9.3125 1.03125,0 0,0.875 c 0.25,-0.34375 0.52604,-0.59896 0.82812,-0.76563 0.3125,-0.17708 0.69271,-0.26562 1.14063,-0.26562 0.57291,0 1.07812,0.15104 1.51562,0.45312 0.4375,0.29167 0.76563,0.70833 0.98438,1.25 0.22917,0.53125 0.34375,1.1198 0.34375,1.76563 0,0.6875 -0.125,1.30729 -0.375,1.85937 -0.23959,0.55209 -0.59896,0.97917 -1.07813,1.28125 -0.46875,0.29167 -0.96354,0.4375 -1.48437,0.4375 -0.375,0 -0.71354,-0.0781 -1.01563,-0.23437 -0.30208,-0.16667 -0.55208,-0.375 -0.75,-0.625 l 0,3.28125 z m 1.03125,-5.90625 c 0,0.86458 0.17708,1.5052 0.53125,1.92187 0.35417,0.41667 0.77604,0.625 1.26562,0.625 0.51042,0 0.94792,-0.21354 1.3125,-0.64062 0.36459,-0.4375 0.54688,-1.10417 0.54688,-2 0,-0.86459 -0.17708,-1.51042 -0.53125,-1.9375 -0.35417,-0.42709 -0.77604,-0.64063 -1.26563,-0.64063 -0.48958,0 -0.92187,0.22917 -1.29687,0.6875 -0.375,0.44792 -0.5625,1.10938 -0.5625,1.98438 z m 10.9906,1.15625 1.1875,0.14062 c -0.1875,0.69792 -0.53646,1.23959 -1.04688,1.625 -0.5,0.375 -1.14062,0.5625 -1.92187,0.5625 -0.98959,0 -1.77605,-0.30208 -2.35938,-0.90625 -0.57291,-0.61458 -0.85937,-1.46875 -0.85937,-2.5625 0,-1.13541 0.29167,-2.01562 0.875,-2.64062 0.59375,-0.625 1.35416,-0.9375 2.28125,-0.9375 0.90625,0 1.64062,0.30729 2.20312,0.92187 0.57292,0.61459 0.85938,1.47396 0.85938,2.57813 l 0,0.3125 -5.03125,0 c 0.0417,0.73958 0.25,1.30729 0.625,1.70312 0.375,0.39583 0.84375,0.59375 1.40625,0.59375 0.42708,0 0.78645,-0.10937 1.07812,-0.32812 0.30209,-0.22917 0.53646,-0.58333 0.70313,-1.0625 z m -3.75,-1.84375 3.76562,0 c -0.0521,-0.57292 -0.1979,-1 -0.4375,-1.28125 -0.36458,-0.4375 -0.83333,-0.65625 -1.40625,-0.65625 -0.53125,0 -0.97395,0.17708 -1.32812,0.53125 -0.35417,0.34375 -0.55208,0.8125 -0.59375,1.40625 z m 10.94373,1.54687 1.125,0.14063 c -0.11459,0.78125 -0.42709,1.39062 -0.9375,1.82812 -0.51042,0.4375 -1.13021,0.65625 -1.85938,0.65625 -0.92708,0 -1.67187,-0.30208 -2.23437,-0.90625 -0.55209,-0.60417 -0.82813,-1.46875 -0.82813,-2.59375 0,-0.72917 0.11979,-1.36458 0.35938,-1.90625 0.23958,-0.55208 0.60416,-0.96354 1.09375,-1.23437 0.48958,-0.27083 1.02604,-0.40625 1.60937,-0.40625 0.72917,0 1.32813,0.1875 1.79688,0.5625 0.46875,0.36458 0.76562,0.88541 0.89062,1.5625 l -1.10937,0.17187 c -0.10417,-0.44791 -0.29167,-0.78645 -0.5625,-1.01562 -0.26042,-0.22917 -0.58334,-0.34375 -0.96875,-0.34375 -0.57292,0 -1.04167,0.20833 -1.40625,0.625 -0.35417,0.40625 -0.53125,1.05729 -0.53125,1.95312 0,0.90625 0.17187,1.56771 0.51562,1.98438 0.34375,0.40625 0.79688,0.60937 1.35938,0.60937 0.44791,0 0.82291,-0.13542 1.125,-0.40625 0.30208,-0.28125 0.48958,-0.70833 0.5625,-1.28125 z m 2.27343,-5.51562 0,-1.32813 1.14063,0 0,1.32813 z m 0,7.98437 0,-6.73437 1.14063,0 0,6.73437 z m 3.22675,0 0,-5.85937 -1,0 0,-0.875 1,0 0,-0.71875 c 0,-0.45833 0.0417,-0.79688 0.125,-1.01563 0.11458,-0.29167 0.30729,-0.53125 0.57812,-0.71875 0.28125,-0.1875 0.67188,-0.28125 1.17188,-0.28125 0.32291,0 0.67708,0.0417 1.0625,0.125 l -0.17188,0.98438 c -0.23958,-0.0417 -0.46354,-0.0625 -0.67187,-0.0625 -0.34375,0 -0.58855,0.0781 -0.73438,0.23437 -0.14583,0.14583 -0.21875,0.42188 -0.21875,0.82813 l 0,0.625 1.3125,0 0,0.875 -1.3125,0 0,5.85937 z m 3.43738,-7.98437 0,-1.32813 1.14062,0 0,1.32813 z m 0,7.98437 0,-6.73437 1.14062,0 0,6.73437 z m 2.96106,0 0,-9.3125 1.14062,0 0,5.3125 2.70313,-2.73437 1.48437,0 -2.57812,2.5 2.84375,4.23437 -1.40625,0 -2.23438,-3.45312 -0.8125,0.78125 0,2.67187 z m 11.05468,-0.82812 c -0.41667,0.35417 -0.82292,0.60937 -1.21875,0.76562 -0.38541,0.14583 -0.80208,0.21875 -1.25,0.21875 -0.75,0 -1.32292,-0.18229 -1.71875,-0.54687 -0.39583,-0.36459 -0.59375,-0.82813 -0.59375,-1.39063 0,-0.32291 0.0729,-0.61979 0.21875,-0.89062 0.15625,-0.28125 0.35417,-0.50521 0.59375,-0.67188 0.25,-0.16667 0.52604,-0.29167 0.82813,-0.375 0.21875,-0.0521 0.55729,-0.10936 1.01562,-0.17187 0.91667,-0.10417 1.59375,-0.23438 2.03125,-0.39063 0.0104,-0.15625 0.0156,-0.2552 0.0156,-0.29687 0,-0.46875 -0.10938,-0.79688 -0.32813,-0.98438 -0.29167,-0.26041 -0.72396,-0.39062 -1.29687,-0.39062 -0.54167,0 -0.94271,0.0937 -1.20313,0.28125 -0.25,0.1875 -0.4375,0.52083 -0.5625,1 l -1.10937,-0.14063 c 0.0937,-0.47917 0.2552,-0.86458 0.48437,-1.15625 0.23959,-0.30208 0.57813,-0.53125 1.01563,-0.6875 0.44791,-0.15625 0.95833,-0.23437 1.53125,-0.23437 0.58333,0 1.05208,0.0677 1.40625,0.20312 0.36458,0.13542 0.6302,0.3073 0.79687,0.51563 0.16667,0.19791 0.28646,0.45312 0.35938,0.76562 0.0313,0.19792 0.0469,0.55209 0.0469,1.0625 l 0,1.51563 c 0,1.0625 0.026,1.73437 0.0781,2.01562 0.0521,0.28125 0.14582,0.55209 0.28125,0.8125 l -1.1875,0 c -0.11459,-0.23958 -0.19271,-0.51562 -0.23438,-0.82812 z m -0.0937,-2.5625 c -0.41667,0.17708 -1.03646,0.32291 -1.85937,0.4375 -0.46875,0.0729 -0.80209,0.15104 -1,0.23437 -0.19792,0.0833 -0.34896,0.20833 -0.45313,0.375 -0.10417,0.15625 -0.15625,0.33334 -0.15625,0.53125 0,0.30209 0.11458,0.5573 0.34375,0.76563 0.22917,0.19791 0.56771,0.29687 1.01563,0.29687 0.4375,0 0.82812,-0.0937 1.17187,-0.28125 0.34375,-0.19791 0.59896,-0.46354 0.76563,-0.79687 0.11458,-0.25 0.17187,-0.63021 0.17187,-1.14063 z m 7.50623,0.92187 1.125,0.14063 c -0.11459,0.78125 -0.42709,1.39062 -0.9375,1.82812 -0.51042,0.4375 -1.13021,0.65625 -1.85938,0.65625 -0.92708,0 -1.67187,-0.30208 -2.23437,-0.90625 -0.55209,-0.60417 -0.82813,-1.46875 -0.82813,-2.59375 0,-0.72917 0.11979,-1.36458 0.35938,-1.90625 0.23958,-0.55208 0.60416,-0.96354 1.09375,-1.23437 0.48958,-0.27083 1.02604,-0.40625 1.60937,-0.40625 0.72917,0 1.32813,0.1875 1.79688,0.5625 0.46875,0.36458 0.76562,0.88541 0.89062,1.5625 l -1.10937,0.17187 c -0.10417,-0.44791 -0.29167,-0.78645 -0.5625,-1.01562 -0.26042,-0.22917 -0.58334,-0.34375 -0.96875,-0.34375 -0.57292,0 -1.04167,0.20833 -1.40625,0.625 -0.35417,0.40625 -0.53125,1.05729 -0.53125,1.95312 0,0.90625 0.17187,1.56771 0.51562,1.98438 0.34375,0.40625 0.79688,0.60937 1.35938,0.60937 0.44791,0 0.82291,-0.13542 1.125,-0.40625 0.30208,-0.28125 0.48958,-0.70833 0.5625,-1.28125 z m 6.88281,0.29688 1.1875,0.14062 c -0.1875,0.69792 -0.53646,1.23959 -1.04687,1.625 -0.5,0.375 -1.14063,0.5625 -1.92188,0.5625 -0.98958,0 -1.77604,-0.30208 -2.35937,-0.90625 -0.57292,-0.61458 -0.85938,-1.46875 -0.85938,-2.5625 0,-1.13541 0.29167,-2.01562 0.875,-2.64062 0.59375,-0.625 1.35417,-0.9375 2.28125,-0.9375 0.90625,0 1.64063,0.30729 2.20313,0.92187 0.57291,0.61459 0.85937,1.47396 0.85937,2.57813 l 0,0.3125 -5.03125,0 c 0.0417,0.73958 0.25,1.30729 0.625,1.70312 0.375,0.39583 0.84375,0.59375 1.40625,0.59375 0.42709,0 0.78646,-0.10937 1.07813,-0.32812 0.30208,-0.22917 0.53645,-0.58333 0.70312,-1.0625 z m -3.75,-1.84375 3.76563,0 c -0.0521,-0.57292 -0.1979,-1 -0.4375,-1.28125 -0.36459,-0.4375 -0.83334,-0.65625 -1.40625,-0.65625 -0.53125,0 -0.97396,0.17708 -1.32813,0.53125 -0.35417,0.34375 -0.55208,0.8125 -0.59375,1.40625 z m 10.25611,6.59375 0,-9.3125 1.03125,0 0,0.875 c 0.25,-0.34375 0.52604,-0.59896 0.82812,-0.76563 0.3125,-0.17708 0.69271,-0.26562 1.14063,-0.26562 0.57291,0 1.07812,0.15104 1.51562,0.45312 0.4375,0.29167 0.76563,0.70833 0.98438,1.25 0.22917,0.53125 0.34375,1.1198 0.34375,1.76563 0,0.6875 -0.125,1.30729 -0.375,1.85937 -0.23959,0.55209 -0.59896,0.97917 -1.07813,1.28125 -0.46875,0.29167 -0.96354,0.4375 -1.48437,0.4375 -0.375,0 -0.71354,-0.0781 -1.01563,-0.23437 -0.30208,-0.16667 -0.55208,-0.375 -0.75,-0.625 l 0,3.28125 z m 1.03125,-5.90625 c 0,0.86458 0.17708,1.5052 0.53125,1.92187 0.35417,0.41667 0.77604,0.625 1.26562,0.625 0.51042,0 0.94792,-0.21354 1.3125,-0.64062 0.36459,-0.4375 0.54688,-1.10417 0.54688,-2 0,-0.86459 -0.17708,-1.51042 -0.53125,-1.9375 -0.35417,-0.42709 -0.77604,-0.64063 -1.26563,-0.64063 -0.48958,0 -0.92187,0.22917 -1.29687,0.6875 -0.375,0.44792 -0.5625,1.10938 -0.5625,1.98438 z m 6.3656,3.32812 0,-6.73437 1.03125,0 0,1.01562 c 0.26041,-0.47917 0.5,-0.79167 0.71875,-0.9375 0.22917,-0.15625 0.47396,-0.23437 0.73437,-0.23437 0.38542,0 0.77605,0.11979 1.17188,0.35937 l -0.39063,1.0625 c -0.28125,-0.16667 -0.55729,-0.25 -0.82812,-0.25 -0.25,0 -0.47917,0.0781 -0.6875,0.23438 -0.19792,0.14583 -0.33855,0.35417 -0.42188,0.625 -0.125,0.40625 -0.1875,0.84895 -0.1875,1.32812 l 0,3.53125 z m 4.0321,-3.375 c 0,-1.25 0.34375,-2.17187 1.03125,-2.76562 0.58333,-0.5 1.29167,-0.75 2.125,-0.75 0.92709,0 1.6823,0.30208 2.26563,0.90625 0.59375,0.60417 0.89062,1.44271 0.89062,2.51562 0,0.86459 -0.13021,1.54688 -0.39062,2.04688 -0.26042,0.5 -0.64063,0.89062 -1.14063,1.17187 -0.5,0.27083 -1.04167,0.40625 -1.625,0.40625 -0.94791,0 -1.71354,-0.30208 -2.29687,-0.90625 -0.57292,-0.60417 -0.85938,-1.47917 -0.85938,-2.625 z m 1.17188,0 c 0,0.86459 0.1875,1.51563 0.5625,1.95313 0.375,0.42708 0.84896,0.64062 1.42187,0.64062 0.5625,0 1.03125,-0.21354 1.40625,-0.64062 0.38542,-0.4375 0.57813,-1.09896 0.57813,-1.98438 0,-0.83333 -0.19271,-1.46354 -0.57813,-1.89062 -0.375,-0.4375 -0.84375,-0.65625 -1.40625,-0.65625 -0.57291,0 -1.04687,0.21354 -1.42187,0.64062 -0.375,0.42709 -0.5625,1.07292 -0.5625,1.9375 z m 8.53747,3.375 -2.5625,-6.73437 1.20313,0 1.4375,4.03125 c 0.15625,0.4375 0.30208,0.89062 0.4375,1.35937 0.10417,-0.35417 0.24479,-0.78125 0.42187,-1.28125 l 1.5,-4.10937 1.17188,0 -2.54688,6.73437 z m 9.39844,-2.17187 1.1875,0.14062 c -0.1875,0.69792 -0.53646,1.23959 -1.04688,1.625 -0.5,0.375 -1.14062,0.5625 -1.92187,0.5625 -0.98959,0 -1.77605,-0.30208 -2.35938,-0.90625 -0.57291,-0.61458 -0.85937,-1.46875 -0.85937,-2.5625 0,-1.13541 0.29167,-2.01562 0.875,-2.64062 0.59375,-0.625 1.35416,-0.9375 2.28125,-0.9375 0.90625,0 1.64062,0.30729 2.20312,0.92187 0.57292,0.61459 0.85938,1.47396 0.85938,2.57813 l 0,0.3125 -5.03125,0 c 0.0417,0.73958 0.25,1.30729 0.625,1.70312 0.375,0.39583 0.84375,0.59375 1.40625,0.59375 0.42708,0 0.78645,-0.10937 1.07812,-0.32812 0.30209,-0.22917 0.53646,-0.58333 0.70313,-1.0625 z m -3.75,-1.84375 3.76562,0 c -0.0521,-0.57292 -0.1979,-1 -0.4375,-1.28125 -0.36458,-0.4375 -0.83333,-0.65625 -1.40625,-0.65625 -0.53125,0 -0.97395,0.17708 -1.32812,0.53125 -0.35417,0.34375 -0.55208,0.8125 -0.59375,1.40625 z m 10.9281,4.01562 0,-0.84375 c -0.42708,0.66667 -1.05729,1 -1.89062,1 -0.53125,0 -1.02605,-0.14583 -1.48438,-0.4375 -0.44791,-0.30208 -0.79687,-0.71875 -1.04687,-1.25 -0.25,-0.53125 -0.375,-1.14062 -0.375,-1.82812 0,-0.67709 0.11458,-1.28646 0.34375,-1.82813 0.22917,-0.55208 0.56771,-0.97395 1.01562,-1.26562 0.44792,-0.29167 0.94792,-0.4375 1.5,-0.4375 0.40625,0 0.76563,0.0885 1.07813,0.26562 0.32291,0.16667 0.58333,0.38542 0.78125,0.65625 l 0,-3.34375 1.14062,0 0,9.3125 z m -3.60937,-3.35937 c 0,0.86458 0.17708,1.51041 0.53125,1.9375 0.36458,0.42708 0.79687,0.64062 1.29687,0.64062 0.5,0 0.92188,-0.20312 1.26563,-0.60937 0.35417,-0.41667 0.53125,-1.04167 0.53125,-1.875 0,-0.92709 -0.17708,-1.60417 -0.53125,-2.03125 -0.35417,-0.4375 -0.79167,-0.65625 -1.3125,-0.65625 -0.51042,0 -0.9375,0.20833 -1.28125,0.625 -0.33333,0.41667 -0.5,1.07292 -0.5,1.96875 z m 11.25622,1.1875 1.1875,0.14062 c -0.1875,0.69792 -0.53646,1.23959 -1.04687,1.625 -0.5,0.375 -1.14063,0.5625 -1.92188,0.5625 -0.98958,0 -1.77604,-0.30208 -2.35937,-0.90625 -0.57292,-0.61458 -0.85938,-1.46875 -0.85938,-2.5625 0,-1.13541 0.29167,-2.01562 0.875,-2.64062 0.59375,-0.625 1.35417,-0.9375 2.28125,-0.9375 0.90625,0 1.64063,0.30729 2.20313,0.92187 0.57291,0.61459 0.85937,1.47396 0.85937,2.57813 l 0,0.3125 -5.03125,0 c 0.0417,0.73958 0.25,1.30729 0.625,1.70312 0.375,0.39583 0.84375,0.59375 1.40625,0.59375 0.42709,0 0.78646,-0.10937 1.07813,-0.32812 0.30208,-0.22917 0.53645,-0.58333 0.70312,-1.0625 z m -3.75,-1.84375 3.76563,0 c -0.0521,-0.57292 -0.1979,-1 -0.4375,-1.28125 -0.36459,-0.4375 -0.83334,-0.65625 -1.40625,-0.65625 -0.53125,0 -0.97396,0.17708 -1.32813,0.53125 -0.35417,0.34375 -0.55208,0.8125 -0.59375,1.40625 z m 6.5531,4.01562 0,-6.73437 1.03125,0 0,0.95312 c 0.48959,-0.73958 1.20313,-1.10937 2.14063,-1.10937 0.40625,0 0.77604,0.0729 1.10937,0.21875 0.34375,0.14583 0.59896,0.33854 0.76563,0.57812 0.17708,0.22917 0.29687,0.51042 0.35937,0.84375 0.0417,0.20833 0.0625,0.57813 0.0625,1.10938 l 0,4.14062 -1.14062,0 0,-4.09375 c 0,-0.46875 -0.0469,-0.8177 -0.14063,-1.04687 -0.0833,-0.22917 -0.23958,-0.41146 -0.46875,-0.54688 -0.21875,-0.14583 -0.47916,-0.21875 -0.78125,-0.21875 -0.48958,0 -0.91145,0.15625 -1.26562,0.46875 -0.35417,0.30209 -0.53125,0.88542 -0.53125,1.75 l 0,3.6875 z m 7.8031,0 0,-6.73437 1.15625,0 0,6.73437 z m 0.15625,-7.57812 0.84375,-1.78125 1.5,0 -1.39062,1.78125 z"
       id="path3486"
       style="fill:#000000;fill-rule:nonzero" />
    <path
       d="m 372.4147,597.1496 124.15747,0 0,48.063 -124.15747,0 z"
       id="path3488"
       style="fill:#000000;fill-opacity:0;fill-rule:nonzero" />
    <path
       d="m 382.36783,618.9496 0,-9.3125 1.23438,0 0,8.21875 4.57812,0 0,1.09375 z m 11.9281,-2.17188 1.1875,0.14063 c -0.1875,0.69791 -0.53646,1.23958 -1.04687,1.625 -0.5,0.375 -1.14063,0.5625 -1.92188,0.5625 -0.98958,0 -1.77604,-0.30208 -2.35937,-0.90625 -0.57292,-0.61459 -0.85938,-1.46875 -0.85938,-2.5625 0,-1.13542 0.29167,-2.01563 0.875,-2.64063 0.59375,-0.625 1.35417,-0.9375 2.28125,-0.9375 0.90625,0 1.64063,0.30729 2.20313,0.92188 0.57291,0.61458 0.85937,1.47395 0.85937,2.57812 l 0,0.3125 -5.03125,0 c 0.0417,0.73959 0.25,1.3073 0.625,1.70313 0.375,0.39583 0.84375,0.59375 1.40625,0.59375 0.42709,0 0.78646,-0.10938 1.07813,-0.32813 0.30208,-0.22917 0.53645,-0.58333 0.70312,-1.0625 z m -3.75,-1.84375 3.76563,0 c -0.0521,-0.57291 -0.1979,-1 -0.4375,-1.28125 -0.36459,-0.4375 -0.83334,-0.65625 -1.40625,-0.65625 -0.53125,0 -0.97396,0.17708 -1.32813,0.53125 -0.35417,0.34375 -0.55208,0.8125 -0.59375,1.40625 z m 6.5531,6.59375 0,-9.3125 1.03125,0 0,0.875 c 0.25,-0.34375 0.52604,-0.59895 0.82813,-0.76562 0.3125,-0.17709 0.69271,-0.26563 1.14062,-0.26563 0.57292,0 1.07813,0.15104 1.51563,0.45313 0.4375,0.29167 0.76562,0.70833 0.98437,1.25 0.22917,0.53125 0.34375,1.11979 0.34375,1.76562 0,0.6875 -0.125,1.30729 -0.375,1.85938 -0.23958,0.55208 -0.59895,0.97916 -1.07812,1.28125 -0.46875,0.29167 -0.96355,0.4375 -1.48438,0.4375 -0.375,0 -0.71354,-0.0781 -1.01562,-0.23438 -0.30209,-0.16667 -0.55209,-0.375 -0.75,-0.625 l 0,3.28125 z m 1.03125,-5.90625 c 0,0.86459 0.17708,1.50521 0.53125,1.92188 0.35417,0.41667 0.77604,0.625 1.26563,0.625 0.51041,0 0.94791,-0.21354 1.3125,-0.64063 0.36458,-0.4375 0.54687,-1.10417 0.54687,-2 0,-0.86458 -0.17708,-1.51041 -0.53125,-1.9375 -0.35417,-0.42708 -0.77604,-0.64062 -1.26562,-0.64062 -0.48959,0 -0.92188,0.22917 -1.29688,0.6875 -0.375,0.44791 -0.5625,1.10937 -0.5625,1.98437 z m 5.9281,1.3125 1.125,-0.17187 c 0.0625,0.44791 0.23955,0.79687 0.53125,1.04687 0.29167,0.23959 0.69792,0.35938 1.21875,0.35938 0.52083,0 0.90625,-0.10417 1.15625,-0.3125 0.26042,-0.21875 0.39063,-0.47396 0.39063,-0.76563 0,-0.26041 -0.11458,-0.46354 -0.34375,-0.60937 -0.15625,-0.10417 -0.54688,-0.23438 -1.17188,-0.39063 -0.83333,-0.20833 -1.41146,-0.39062 -1.73437,-0.54687 -0.32292,-0.15625 -0.56771,-0.3698 -0.73438,-0.64063 -0.16667,-0.27083 -0.25,-0.57292 -0.25,-0.90625 0,-0.30208 0.0677,-0.57812 0.20313,-0.82812 0.13541,-0.26042 0.32291,-0.47396 0.5625,-0.64063 0.17708,-0.13541 0.41666,-0.24479 0.71875,-0.32812 0.3125,-0.0937 0.64583,-0.14063 1,-0.14063 0.52083,0 0.97917,0.0781 1.375,0.23438 0.40625,0.14583 0.70312,0.34896 0.89062,0.60937 0.19792,0.26042 0.33334,0.60938 0.40625,1.04688 l -1.125,0.15625 c -0.0521,-0.35417 -0.1979,-0.625 -0.4375,-0.8125 -0.23958,-0.19792 -0.58333,-0.29688 -1.03125,-0.29688 -0.52083,0 -0.89583,0.0885 -1.125,0.26563 -0.22917,0.16667 -0.34375,0.36979 -0.34375,0.60937 0,0.14583 0.0469,0.27604 0.14063,0.39063 0.0937,0.125 0.23958,0.22917 0.4375,0.3125 0.11458,0.0417 0.45312,0.13542 1.01562,0.28125 0.8125,0.21875 1.375,0.39583 1.6875,0.53125 0.32292,0.13541 0.57292,0.33854 0.75,0.60937 0.1875,0.26042 0.28125,0.58334 0.28125,0.96875 0,0.38542 -0.11458,0.7448 -0.34375,1.07813 -0.21875,0.33333 -0.53645,0.59375 -0.95312,0.78125 -0.41667,0.1875 -0.89063,0.28125 -1.42188,0.28125 -0.875,0 -1.54167,-0.18229 -2,-0.54688 -0.45833,-0.36458 -0.75,-0.90625 -0.875,-1.625 z m 2.875,-6.26562 0.70313,-1.07813 1.28125,0 -1.42188,1.78125 -1.21875,0 -1.375,-1.78125 1.3125,0 z m 4.63281,8.28125 0,-6.73438 1.15625,0 0,6.73438 z m 0.15625,-7.57813 0.84375,-1.78125 1.5,0 -1.39062,1.78125 z"
       id="path3490"
       style="fill:#000000;fill-rule:nonzero" />
    <path
       d="m 304.33597,764.34384 105.13385,0 0,25.03937 -105.13385,0 z"
       id="path3492"
       style="fill:#000000;fill-opacity:0;fill-rule:nonzero" />
    <path
       d="m 314.38284,786.14383 0,-9.3125 1.21875,0 0,3.82812 4.84375,0 0,-3.82812 1.23437,0 0,9.3125 -1.23437,0 0,-4.39063 -4.84375,0 0,4.39063 z m 9.01578,-3.375 c 0,-1.25 0.34375,-2.17188 1.03125,-2.76563 0.58333,-0.5 1.29167,-0.75 2.125,-0.75 0.92708,0 1.68229,0.30208 2.26562,0.90625 0.59375,0.60417 0.89063,1.44271 0.89063,2.51563 0,0.86458 -0.13021,1.54687 -0.39063,2.04687 -0.26041,0.5 -0.64062,0.89063 -1.14062,1.17188 -0.5,0.27083 -1.04167,0.40625 -1.625,0.40625 -0.94792,0 -1.71355,-0.30208 -2.29688,-0.90625 -0.57291,-0.60417 -0.85937,-1.47917 -0.85937,-2.625 z m 1.17187,0 c 0,0.86458 0.1875,1.51562 0.5625,1.95312 0.375,0.42709 0.84896,0.64063 1.42188,0.64063 0.5625,0 1.03125,-0.21354 1.40625,-0.64063 0.38541,-0.4375 0.57812,-1.09896 0.57812,-1.98437 0,-0.83333 -0.19271,-1.46354 -0.57812,-1.89063 -0.375,-0.4375 -0.84375,-0.65625 -1.40625,-0.65625 -0.57292,0 -1.04688,0.21354 -1.42188,0.64063 -0.375,0.42708 -0.5625,1.07291 -0.5625,1.9375 z m 6.64685,3.375 0,-6.73438 1.03125,0 0,1.01563 c 0.26042,-0.47917 0.5,-0.79167 0.71875,-0.9375 0.22917,-0.15625 0.47396,-0.23438 0.73438,-0.23438 0.38541,0 0.77604,0.11979 1.17187,0.35938 l -0.39062,1.0625 c -0.28125,-0.16667 -0.5573,-0.25 -0.82813,-0.25 -0.25,0 -0.47917,0.0781 -0.6875,0.23437 -0.19791,0.14583 -0.33854,0.35417 -0.42187,0.625 -0.125,0.40625 -0.1875,0.84896 -0.1875,1.32813 l 0,3.53125 z m 4.00086,-2.01563 1.125,-0.17187 c 0.0625,0.44791 0.23955,0.79687 0.53125,1.04687 0.29167,0.23959 0.69792,0.35938 1.21875,0.35938 0.52083,0 0.90625,-0.10417 1.15625,-0.3125 0.26041,-0.21875 0.39062,-0.47396 0.39062,-0.76563 0,-0.26041 -0.11458,-0.46354 -0.34375,-0.60937 -0.15625,-0.10417 -0.54687,-0.23438 -1.17187,-0.39063 -0.83333,-0.20833 -1.41146,-0.39062 -1.73438,-0.54687 -0.32291,-0.15625 -0.5677,-0.3698 -0.73437,-0.64063 -0.16667,-0.27083 -0.25,-0.57292 -0.25,-0.90625 0,-0.30208 0.0677,-0.57812 0.20312,-0.82812 0.13542,-0.26042 0.32292,-0.47396 0.5625,-0.64063 0.17709,-0.13541 0.41667,-0.24479 0.71875,-0.32812 0.3125,-0.0937 0.64583,-0.14063 1,-0.14063 0.52083,0 0.97917,0.0781 1.375,0.23438 0.40625,0.14583 0.70313,0.34896 0.89063,0.60937 0.19791,0.26042 0.33333,0.60938 0.40625,1.04688 l -1.125,0.15625 c -0.0521,-0.35417 -0.1979,-0.625 -0.4375,-0.8125 -0.23959,-0.19792 -0.58334,-0.29688 -1.03125,-0.29688 -0.52083,0 -0.89583,0.0885 -1.125,0.26563 -0.22917,0.16667 -0.34375,0.36979 -0.34375,0.60937 0,0.14583 0.0469,0.27604 0.14062,0.39063 0.0937,0.125 0.23959,0.22917 0.4375,0.3125 0.11459,0.0417 0.45313,0.13542 1.01563,0.28125 0.8125,0.21875 1.375,0.39583 1.6875,0.53125 0.32291,0.13541 0.57291,0.33854 0.75,0.60937 0.1875,0.26042 0.28125,0.58334 0.28125,0.96875 0,0.38542 -0.11458,0.7448 -0.34375,1.07813 -0.21875,0.33333 -0.53646,0.59375 -0.95313,0.78125 -0.41667,0.1875 -0.89062,0.28125 -1.42187,0.28125 -0.875,0 -1.54167,-0.18229 -2,-0.54688 -0.45833,-0.36458 -0.75,-0.90625 -0.875,-1.625 z m 2.875,-6.26562 0.70312,-1.07813 1.28125,0 -1.42187,1.78125 -1.21875,0 -1.375,-1.78125 1.3125,0 z m 4.63281,8.28125 0,-6.73438 1.15625,0 0,6.73438 z m 0.15625,-7.57813 0.84375,-1.78125 1.5,0 -1.39062,1.78125 z"
       id="path3494"
       style="fill:#000000;fill-rule:nonzero" />
    <path
       d="m 125.11811,809.40683 103.11811,0 0,24.03149 -103.11811,0 z"
       id="path3496"
       style="fill:#000000;fill-opacity:0;fill-rule:nonzero" />
    <path
       d="m 135.11811,831.20682 0,-9.3125 3.51563,0 c 0.61458,0 1.08333,0.0312 1.40625,0.0937 0.45833,0.0729 0.84375,0.21875 1.15625,0.4375 0.3125,0.20833 0.5625,0.50521 0.75,0.89062 0.18749,0.38542 0.28124,0.8125 0.28124,1.28125 0,0.79167 -0.25521,1.46354 -0.76562,2.01563 -0.5,0.54167 -1.40625,0.8125 -2.71875,0.8125 l -2.39063,0 0,3.78125 -1.23437,0 z m 1.23438,-4.875 2.40625,0 c 0.79167,0 1.35417,-0.14583 1.6875,-0.4375 0.34375,-0.30209 0.51562,-0.72396 0.51562,-1.26563 0,-0.38541 -0.099,-0.71354 -0.29687,-0.98437 -0.19792,-0.28125 -0.45834,-0.46875 -0.78125,-0.5625 -0.20833,-0.0521 -0.59375,-0.0781 -1.15625,-0.0781 l -2.375,0 0,3.32813 z m 7.49912,4.875 0,-6.73438 1.03125,0 0,1.01563 c 0.26041,-0.47917 0.5,-0.79167 0.71875,-0.9375 0.22917,-0.15625 0.47396,-0.23438 0.73437,-0.23438 0.38542,0 0.77605,0.11979 1.17188,0.35938 l -0.39063,1.0625 c -0.28125,-0.16667 -0.55729,-0.25 -0.82812,-0.25 -0.25,0 -0.47917,0.0781 -0.6875,0.23437 -0.19792,0.14583 -0.33855,0.35417 -0.42188,0.625 -0.125,0.40625 -0.1875,0.84896 -0.1875,1.32813 l 0,3.53125 z m 1.4375,-8.28125 0.70312,-1.07813 1.28125,0 -1.42187,1.78125 -1.21875,0 -1.375,-1.78125 1.3125,0 z m 7.62587,6.10937 1.1875,0.14063 c -0.1875,0.69791 -0.53646,1.23958 -1.04688,1.625 -0.5,0.375 -1.14062,0.5625 -1.92187,0.5625 -0.98959,0 -1.77605,-0.30208 -2.35938,-0.90625 -0.57291,-0.61459 -0.85937,-1.46875 -0.85937,-2.5625 0,-1.13542 0.29167,-2.01563 0.875,-2.64063 0.59375,-0.625 1.35416,-0.9375 2.28125,-0.9375 0.90625,0 1.64062,0.30729 2.20312,0.92188 0.57292,0.61458 0.85938,1.47395 0.85938,2.57812 l 0,0.3125 -5.03125,0 c 0.0417,0.73959 0.25,1.3073 0.625,1.70313 0.375,0.39583 0.84375,0.59375 1.40625,0.59375 0.42708,0 0.78645,-0.10938 1.07812,-0.32813 0.30209,-0.22917 0.53646,-0.58333 0.70313,-1.0625 z m -3.75,-1.84375 3.76562,0 c -0.0521,-0.57291 -0.1979,-1 -0.4375,-1.28125 -0.36458,-0.4375 -0.83333,-0.65625 -1.40625,-0.65625 -0.53125,0 -0.97395,0.17708 -1.32812,0.53125 -0.35417,0.34375 -0.55208,0.8125 -0.59375,1.40625 z m 10.9281,4.01563 0,-0.84375 c -0.42709,0.66667 -1.0573,1 -1.89063,1 -0.53125,0 -1.02604,-0.14583 -1.48437,-0.4375 -0.44792,-0.30209 -0.79688,-0.71875 -1.04688,-1.25 -0.25,-0.53125 -0.375,-1.14063 -0.375,-1.82813 0,-0.67708 0.11458,-1.28645 0.34375,-1.82812 0.22917,-0.55209 0.56771,-0.97396 1.01563,-1.26563 0.44791,-0.29167 0.94791,-0.4375 1.5,-0.4375 0.40625,0 0.76562,0.0885 1.07812,0.26563 0.32292,0.16667 0.58334,0.38542 0.78125,0.65625 l 0,-3.34375 1.14063,0 0,9.3125 z m -3.60938,-3.35938 c 0,0.86459 0.17708,1.51042 0.53125,1.9375 0.36459,0.42709 0.79688,0.64063 1.29688,0.64063 0.5,0 0.92187,-0.20313 1.26562,-0.60938 0.35417,-0.41667 0.53125,-1.04167 0.53125,-1.875 0,-0.92708 -0.17708,-1.60416 -0.53125,-2.03125 -0.35417,-0.4375 -0.79167,-0.65625 -1.3125,-0.65625 -0.51041,0 -0.9375,0.20833 -1.28125,0.625 -0.33333,0.41667 -0.5,1.07292 -0.5,1.96875 z m 6.19373,1.34375 1.125,-0.17187 c 0.0625,0.44791 0.23955,0.79687 0.53125,1.04687 0.29167,0.23959 0.69792,0.35938 1.21875,0.35938 0.52083,0 0.90625,-0.10417 1.15625,-0.3125 0.26041,-0.21875 0.39062,-0.47396 0.39062,-0.76563 0,-0.26041 -0.11458,-0.46354 -0.34375,-0.60937 -0.15625,-0.10417 -0.54687,-0.23438 -1.17187,-0.39063 -0.83333,-0.20833 -1.41146,-0.39062 -1.73438,-0.54687 -0.32291,-0.15625 -0.5677,-0.3698 -0.73437,-0.64063 -0.16667,-0.27083 -0.25,-0.57292 -0.25,-0.90625 0,-0.30208 0.0677,-0.57812 0.20312,-0.82812 0.13542,-0.26042 0.32292,-0.47396 0.5625,-0.64063 0.17709,-0.13541 0.41667,-0.24479 0.71875,-0.32812 0.3125,-0.0937 0.64583,-0.14063 1,-0.14063 0.52083,0 0.97917,0.0781 1.375,0.23438 0.40625,0.14583 0.70313,0.34896 0.89063,0.60937 0.19791,0.26042 0.33333,0.60938 0.40625,1.04688 l -1.125,0.15625 c -0.0521,-0.35417 -0.1979,-0.625 -0.4375,-0.8125 -0.23959,-0.19792 -0.58334,-0.29688 -1.03125,-0.29688 -0.52083,0 -0.89583,0.0885 -1.125,0.26563 -0.22917,0.16667 -0.34375,0.36979 -0.34375,0.60937 0,0.14583 0.0469,0.27604 0.14062,0.39063 0.0937,0.125 0.23959,0.22917 0.4375,0.3125 0.11459,0.0417 0.45313,0.13542 1.01563,0.28125 0.8125,0.21875 1.375,0.39583 1.6875,0.53125 0.32291,0.13541 0.57291,0.33854 0.75,0.60937 0.1875,0.26042 0.28125,0.58334 0.28125,0.96875 0,0.38542 -0.11458,0.7448 -0.34375,1.07813 -0.21875,0.33333 -0.53646,0.59375 -0.95313,0.78125 -0.41667,0.1875 -0.89062,0.28125 -1.42187,0.28125 -0.875,0 -1.54167,-0.18229 -2,-0.54688 -0.45833,-0.36458 -0.75,-0.90625 -0.875,-1.625 z m 9.61719,1 0.15625,1 c -0.32292,0.0729 -0.60938,0.10938 -0.85938,0.10938 -0.41667,0 -0.73958,-0.0677 -0.96875,-0.20313 -0.22917,-0.13541 -0.39062,-0.30729 -0.48437,-0.51562 -0.0937,-0.21875 -0.14063,-0.66667 -0.14063,-1.34375 l 0,-3.89063 -0.82812,0 0,-0.875 0.82812,0 0,-1.67187 1.14063,-0.6875 0,2.35937 1.15625,0 0,0.875 -1.15625,0 0,3.95313 c 0,0.32291 0.0208,0.53125 0.0625,0.625 0.0417,0.0937 0.10417,0.16666 0.1875,0.21875 0.0937,0.0521 0.22395,0.0781 0.39062,0.0781 0.13542,0 0.3073,-0.0104 0.51563,-0.0312 z m 1.20298,-6.96875 0,-1.32812 1.14063,0 0,1.32812 z m 0,7.98438 0,-6.73438 1.14063,0 0,6.73438 z m 2.96109,0 0,-9.3125 1.14063,0 0,3.34375 c 0.53125,-0.61459 1.20312,-0.92188 2.01562,-0.92188 0.5,0 0.93229,0.099 1.29688,0.29688 0.375,0.19791 0.64062,0.46875 0.79687,0.8125 0.15625,0.34375 0.23438,0.84895 0.23438,1.51562 l 0,4.26563 -1.14063,0 0,-4.26563 c 0,-0.57291 -0.125,-0.98958 -0.375,-1.25 -0.23958,-0.26041 -0.58854,-0.39062 -1.04687,-0.39062 -0.33333,0 -0.65104,0.0885 -0.95313,0.26562 -0.30208,0.16667 -0.51562,0.40104 -0.64062,0.70313 -0.125,0.30208 -0.1875,0.71875 -0.1875,1.25 l 0,3.6875 z"
       id="path3498"
       style="fill:#000000;fill-rule:nonzero" />
    <path
       d="m 272.28085,809.40683 124.15747,0 0,25.03937 -124.15747,0 z"
       id="path3500"
       style="fill:#000000;fill-opacity:0;fill-rule:nonzero" />
    <path
       d="m 281.54648,831.20682 0,-1.14063 4.76562,-5.96875 c 0.33333,-0.41667 0.65625,-0.78125 0.96875,-1.09375 l -5.20312,0 0,-1.10937 6.67187,0 0,1.10937 -5.23437,6.45313 -0.5625,0.65625 5.95312,0 0,1.09375 z m 8.73511,2.57812 0,-9.3125 1.03125,0 0,0.875 c 0.25,-0.34375 0.52604,-0.59895 0.82812,-0.76562 0.3125,-0.17709 0.69271,-0.26563 1.14063,-0.26563 0.57291,0 1.07812,0.15104 1.51562,0.45313 0.4375,0.29167 0.76563,0.70833 0.98438,1.25 0.22917,0.53125 0.34375,1.11979 0.34375,1.76562 0,0.6875 -0.125,1.30729 -0.375,1.85938 -0.23959,0.55208 -0.59896,0.97916 -1.07813,1.28125 -0.46875,0.29167 -0.96354,0.4375 -1.48437,0.4375 -0.375,0 -0.71354,-0.0781 -1.01563,-0.23438 -0.30208,-0.16667 -0.55208,-0.375 -0.75,-0.625 l 0,3.28125 z m 1.03125,-5.90625 c 0,0.86459 0.17708,1.50521 0.53125,1.92188 0.35417,0.41667 0.77604,0.625 1.26562,0.625 0.51042,0 0.94792,-0.21354 1.3125,-0.64063 0.36459,-0.4375 0.54688,-1.10417 0.54688,-2 0,-0.86458 -0.17708,-1.51041 -0.53125,-1.9375 -0.35417,-0.42708 -0.77604,-0.64062 -1.26563,-0.64062 -0.48958,0 -0.92187,0.22917 -1.29687,0.6875 -0.375,0.44791 -0.5625,1.10937 -0.5625,1.98437 z m 5.95935,-0.0469 c 0,-1.25 0.34375,-2.17188 1.03125,-2.76563 0.58333,-0.5 1.29167,-0.75 2.125,-0.75 0.92708,0 1.68229,0.30208 2.26562,0.90625 0.59375,0.60417 0.89063,1.44271 0.89063,2.51563 0,0.86458 -0.13021,1.54687 -0.39063,2.04687 -0.26041,0.5 -0.64062,0.89063 -1.14062,1.17188 -0.5,0.27083 -1.04167,0.40625 -1.625,0.40625 -0.94792,0 -1.71355,-0.30208 -2.29688,-0.90625 -0.57291,-0.60417 -0.85937,-1.47917 -0.85937,-2.625 z m 1.17187,0 c 0,0.86458 0.1875,1.51562 0.5625,1.95312 0.375,0.42709 0.84896,0.64063 1.42188,0.64063 0.5625,0 1.03125,-0.21354 1.40625,-0.64063 0.38541,-0.4375 0.57812,-1.09896 0.57812,-1.98437 0,-0.83333 -0.19271,-1.46354 -0.57812,-1.89063 -0.375,-0.4375 -0.84375,-0.65625 -1.40625,-0.65625 -0.57292,0 -1.04688,0.21354 -1.42188,0.64063 -0.375,0.42708 -0.5625,1.07291 -0.5625,1.9375 z m 6.0531,3.375 0,-0.92188 4.29688,-4.9375 c -0.48959,0.0313 -0.92188,0.0469 -1.29688,0.0469 l -2.73437,0 0,-0.92188 5.5,0 0,0.75 -3.64063,4.28125 -0.71875,0.78125 c 0.52083,-0.0417 1.00521,-0.0625 1.45313,-0.0625 l 3.10937,0 0,0.98438 -5.96875,0 z m 3.03125,-8.28125 0.70313,-1.07813 1.28125,0 -1.42188,1.78125 -1.21875,0 -1.375,-1.78125 1.3125,0 z m 8.61719,8.28125 0,-0.84375 c -0.42708,0.66667 -1.05729,1 -1.89062,1 -0.53125,0 -1.02605,-0.14583 -1.48438,-0.4375 -0.44791,-0.30209 -0.79687,-0.71875 -1.04687,-1.25 -0.25,-0.53125 -0.375,-1.14063 -0.375,-1.82813 0,-0.67708 0.11458,-1.28645 0.34375,-1.82812 0.22917,-0.55209 0.56771,-0.97396 1.01562,-1.26563 0.44792,-0.29167 0.94792,-0.4375 1.5,-0.4375 0.40625,0 0.76563,0.0885 1.07813,0.26563 0.32291,0.16667 0.58333,0.38542 0.78125,0.65625 l 0,-3.34375 1.14062,0 0,9.3125 z m -3.60937,-3.35938 c 0,0.86459 0.17708,1.51042 0.53125,1.9375 0.36458,0.42709 0.79687,0.64063 1.29687,0.64063 0.5,0 0.92188,-0.20313 1.26563,-0.60938 0.35417,-0.41667 0.53125,-1.04167 0.53125,-1.875 0,-0.92708 -0.17708,-1.60416 -0.53125,-2.03125 -0.35417,-0.4375 -0.79167,-0.65625 -1.3125,-0.65625 -0.51042,0 -0.9375,0.20833 -1.28125,0.625 -0.33333,0.41667 -0.5,1.07292 -0.5,1.96875 z m 11.25622,1.1875 1.1875,0.14063 c -0.1875,0.69791 -0.53646,1.23958 -1.04687,1.625 -0.5,0.375 -1.14063,0.5625 -1.92188,0.5625 -0.98958,0 -1.77604,-0.30208 -2.35937,-0.90625 -0.57292,-0.61459 -0.85938,-1.46875 -0.85938,-2.5625 0,-1.13542 0.29167,-2.01563 0.875,-2.64063 0.59375,-0.625 1.35417,-0.9375 2.28125,-0.9375 0.90625,0 1.64063,0.30729 2.20313,0.92188 0.57291,0.61458 0.85937,1.47395 0.85937,2.57812 l 0,0.3125 -5.03125,0 c 0.0417,0.73959 0.25,1.3073 0.625,1.70313 0.375,0.39583 0.84375,0.59375 1.40625,0.59375 0.42709,0 0.78646,-0.10938 1.07813,-0.32813 0.30208,-0.22917 0.53645,-0.58333 0.70312,-1.0625 z m -3.75,-1.84375 3.76563,0 c -0.0521,-0.57291 -0.1979,-1 -0.4375,-1.28125 -0.36459,-0.4375 -0.83334,-0.65625 -1.40625,-0.65625 -0.53125,0 -0.97396,0.17708 -1.32813,0.53125 -0.35417,0.34375 -0.55208,0.8125 -0.59375,1.40625 z m 1.5625,-4.26562 0.70313,-1.07813 1.28125,0 -1.42188,1.78125 -1.21875,0 -1.375,-1.78125 1.3125,0 z m 4.9906,8.28125 0,-6.73438 1.03125,0 0,0.95313 c 0.48959,-0.73959 1.20313,-1.10938 2.14063,-1.10938 0.40625,0 0.77604,0.0729 1.10937,0.21875 0.34375,0.14583 0.59896,0.33854 0.76563,0.57813 0.17708,0.22917 0.29687,0.51042 0.35937,0.84375 0.0417,0.20833 0.0625,0.57812 0.0625,1.10937 l 0,4.14063 -1.14062,0 0,-4.09375 c 0,-0.46875 -0.0469,-0.81771 -0.14063,-1.04688 -0.0833,-0.22917 -0.23958,-0.41146 -0.46875,-0.54687 -0.21875,-0.14583 -0.47916,-0.21875 -0.78125,-0.21875 -0.48958,0 -0.91145,0.15625 -1.26562,0.46875 -0.35417,0.30208 -0.53125,0.88541 -0.53125,1.75 l 0,3.6875 z m 7.8031,0 0,-6.73438 1.15625,0 0,6.73438 z m 0.15625,-7.57813 0.84375,-1.78125 1.5,0 -1.39062,1.78125 z"
       id="path3502"
       style="fill:#000000;fill-rule:nonzero" />
    <path
       d="M 342.38058,738.31497 391.45144,634.18898"
       id="path3504"
       style="fill:#000000;fill-opacity:0;fill-rule:nonzero" />
    <path
       d="m 342.38058,738.31497 46.51306,-98.6985"
       id="path3506"
       style="stroke:#000000;stroke-width:1;stroke-linecap:butt;stroke-linejoin:round" />
    <path
       d="m 390.3878,640.3206 0.44046,-4.80922 -3.42871,3.40096 z"
       id="path3508"
       style="fill:#000000;fill-rule:evenodd;stroke:#000000;stroke-width:1;stroke-linecap:butt" />
    <path
       d="m 382.4462,743.33597 -25.5433,46.04724"
       id="path3510"
       style="fill:#000000;fill-opacity:0;fill-rule:nonzero" />
    <path
       d="m 382.4462,743.33597 -22.63278,40.80045"
       id="path3512"
       style="stroke:#000000;stroke-width:1;stroke-linecap:butt;stroke-linejoin:round" />
    <path
       d="m 358.36902,783.33517 -0.75699,4.76965 3.64575,-3.1672 z"
       id="path3514"
       style="fill:#000000;fill-rule:evenodd;stroke:#000000;stroke-width:1;stroke-linecap:butt" />
    <path
       d="m 103.09712,810.39633 0,-321.38583"
       id="path3516"
       style="fill:#000000;fill-opacity:0;fill-rule:nonzero" />
    <path
       d="m 103.09712,810.39633 0,-315.38583"
       id="path3518"
       style="stroke:#000000;stroke-width:1;stroke-linecap:butt;stroke-linejoin:round" />
    <path
       d="m 104.74885,495.0105 -1.65173,-4.5381 -1.65174,4.5381 z"
       id="path3520"
       style="fill:#000000;fill-rule:evenodd;stroke:#000000;stroke-width:1;stroke-linecap:butt" />
    <path
       d="m 664.7507,807.4042 65.07086,0 0,42.04724 -65.07086,0 z"
       id="path3522"
       style="fill:#000000;fill-opacity:0;fill-rule:nonzero" />
    <path
       d="m 684.92255,829.55856 1.79687,0.45312 c -0.375,1.47917 -1.05208,2.60938 -2.03125,3.39063 -0.97917,0.77083 -2.17708,1.15625 -3.59375,1.15625 -1.46875,0 -2.66145,-0.29688 -3.57812,-0.89063 -0.91667,-0.60417 -1.61458,-1.46875 -2.09375,-2.59375 -0.47917,-1.13541 -0.71875,-2.35416 -0.71875,-3.65625 0,-1.41667 0.26562,-2.65104 0.79687,-3.70312 0.54167,-1.05209 1.3125,-1.84896 2.3125,-2.39063 1,-0.55208 2.09896,-0.82812 3.29688,-0.82812 1.36458,0 2.51041,0.34896 3.4375,1.04687 0.92708,0.6875 1.57291,1.65625 1.9375,2.90625 l -1.76563,0.42188 c -0.3125,-0.98959 -0.77083,-1.70834 -1.375,-2.15625 -0.60417,-0.45833 -1.35937,-0.6875 -2.26562,-0.6875 -1.04167,0 -1.91667,0.25 -2.625,0.75 -0.69792,0.5 -1.19271,1.17708 -1.48438,2.03125 -0.28125,0.84375 -0.42187,1.71354 -0.42187,2.60937 0,1.15625 0.16667,2.16667 0.5,3.03125 0.34375,0.85417 0.86979,1.49479 1.57812,1.92188 0.71875,0.42708 1.48959,0.64062 2.3125,0.64062 1.01042,0 1.86459,-0.28646 2.5625,-0.85937 0.69792,-0.58333 1.17188,-1.44792 1.42188,-2.59375 z m -3.84375,-10.32813 1.01562,-1.57812 1.90625,0 -2.09375,2.59375 -1.78125,0 -2,-2.59375 1.90625,0 z m 13.83234,13.875 c -0.625,0.53125 -1.22396,0.90625 -1.79688,1.125 -0.57291,0.20833 -1.1875,0.3125 -1.84375,0.3125 -1.07291,0 -1.90104,-0.26042 -2.48437,-0.78125 -0.58333,-0.53125 -0.875,-1.20833 -0.875,-2.03125 0,-0.48958 0.10937,-0.93229 0.32812,-1.32812 0.21875,-0.39583 0.50521,-0.71354 0.85938,-0.95313 0.35417,-0.23958 0.75521,-0.42187 1.20312,-0.54687 0.33333,-0.0937 0.82813,-0.17709 1.48438,-0.25 1.35417,-0.16667 2.34896,-0.35938 2.98437,-0.57813 l 0,-0.4375 c 0,-0.67708 -0.15625,-1.15625 -0.46875,-1.4375 -0.42708,-0.375 -1.0625,-0.5625 -1.90625,-0.5625 -0.78125,0 -1.35937,0.13542 -1.73437,0.40625 -0.375,0.27083 -0.65104,0.76042 -0.82813,1.46875 l -1.64062,-0.23437 c 0.15625,-0.69792 0.40104,-1.26042 0.73437,-1.6875 0.34375,-0.42709 0.83334,-0.75521 1.46875,-0.98438 0.64583,-0.23958 1.39583,-0.35937 2.25,-0.35937 0.84375,0 1.52605,0.099 2.04688,0.29687 0.52083,0.19792 0.90625,0.44792 1.15625,0.75 0.25,0.30209 0.42187,0.6823 0.51562,1.14063 0.0625,0.28125 0.0937,0.79166 0.0937,1.53125 l 0,2.23437 c 0,1.55209 0.0312,2.53646 0.0937,2.95313 0.0729,0.40625 0.21875,0.79687 0.4375,1.17187 l -1.75,0 c -0.17708,-0.34375 -0.28645,-0.75 -0.32812,-1.21875 z m -0.14063,-3.71875 c -0.60417,0.23959 -1.51562,0.44792 -2.73437,0.625 -0.6875,0.0937 -1.17188,0.20313 -1.45313,0.32813 -0.28125,0.125 -0.5,0.30729 -0.65625,0.54687 -0.15625,0.23959 -0.23437,0.50521 -0.23437,0.79688 0,0.44791 0.16667,0.82291 0.5,1.125 0.34375,0.29167 0.83854,0.4375 1.48437,0.4375 0.64583,0 1.21875,-0.14063 1.71875,-0.42188 0.5,-0.29167 0.86979,-0.67708 1.10938,-1.15625 0.17708,-0.38541 0.26562,-0.9427 0.26562,-1.67187 z m 3.40692,2 1.65625,-0.26562 c 0.0937,0.66667 0.34896,1.17708 0.76563,1.53125 0.42708,0.34375 1.02083,0.51562 1.78125,0.51562 0.77083,0 1.33854,-0.15625 1.70312,-0.46875 0.375,-0.3125 0.5625,-0.67708 0.5625,-1.09375 0,-0.375 -0.16146,-0.67187 -0.48437,-0.89062 -0.22917,-0.14583 -0.79688,-0.33333 -1.70313,-0.5625 -1.22917,-0.3125 -2.08333,-0.57813 -2.5625,-0.79688 -0.46875,-0.22917 -0.82812,-0.54167 -1.07812,-0.9375 -0.23959,-0.40625 -0.35938,-0.84895 -0.35938,-1.32812 0,-0.4375 0.099,-0.84375 0.29688,-1.21875 0.20833,-0.375 0.48437,-0.6875 0.82812,-0.9375 0.26042,-0.1875 0.61459,-0.34896 1.0625,-0.48438 0.44792,-0.13541 0.92709,-0.20312 1.4375,-0.20312 0.78125,0 1.46355,0.11458 2.04688,0.34375 0.58333,0.21875 1.01042,0.52083 1.28125,0.90625 0.28125,0.375 0.47395,0.88021 0.57812,1.51562 l -1.625,0.21875 c -0.0729,-0.5 -0.29166,-0.89062 -0.65625,-1.17187 -0.35417,-0.29167 -0.85417,-0.4375 -1.5,-0.4375 -0.77083,0 -1.31771,0.13021 -1.64062,0.39062 -0.32292,0.25 -0.48438,0.54167 -0.48438,0.875 0,0.21875 0.0677,0.41667 0.20313,0.59375 0.13541,0.17709 0.34895,0.32292 0.64062,0.4375 0.16667,0.0625 0.65625,0.2083 1.46875,0.4375 1.17709,0.3125 2,0.56771 2.46875,0.76563 0.46875,0.19791 0.83334,0.48958 1.09375,0.875 0.27083,0.38541 0.40625,0.86458 0.40625,1.4375 0,0.55208 -0.16146,1.07812 -0.48437,1.57812 -0.32292,0.48959 -0.79167,0.8698 -1.40625,1.14063 -0.61459,0.26041 -1.3073,0.39062 -2.07813,0.39062 -1.28125,0 -2.26041,-0.26562 -2.9375,-0.79687 -0.66667,-0.53125 -1.09375,-1.31771 -1.28125,-2.35938 z"
       id="path3524"
       style="fill:#000000;fill-rule:nonzero" />
    <path
       d="M 103.09712,810.39633 722.81367,807.4042"
       id="path3526"
       style="fill:#000000;fill-opacity:0;fill-rule:nonzero" />
    <path
       d="m 103.09712,810.39633 613.71659,-2.96317"
       id="path3528"
       style="stroke:#000000;stroke-width:1;stroke-linecap:butt;stroke-linejoin:round" />
    <path
       d="m 716.8217,809.08487 4.53003,-1.67361 -4.54602,-1.6298 z"
       id="path3530"
       style="fill:#000000;fill-rule:evenodd;stroke:#000000;stroke-width:1;stroke-linecap:butt" />
  </g>
</svg>
